<svg xmlns="http://www.w3.org/2000/svg" fill="none" viewBox="0 0 44 45" height="45" width="44">
<g clip-path="url(#clip0_92_606)">
<path fill="url(#paint0_linear_92_606)" d="M18.6857 44.8201C18.5989 44.8201 18.5093 44.8152 18.4165 44.8048C17.802 44.7352 17.264 44.4409 16.9009 43.9761C16.5222 43.4911 16.3571 42.8494 16.4364 42.1693C16.5783 40.9554 16.7423 39.7272 16.9009 38.5402C16.9651 38.0585 17.0299 37.5767 17.093 37.095L17.4399 34.4447C17.7901 31.7731 18.1397 29.1014 18.4888 26.4292H16.7963C14.9003 26.427 12.9402 26.4259 11.0135 26.4347C10.6029 26.4352 9.35333 26.4423 8.71775 25.1901C8.06276 23.9005 8.83969 22.85 9.09489 22.5047C12.6046 17.7593 16.1105 13.0106 19.617 8.2624L24.2176 2.0329C25.0253 0.939022 25.9663 0.583348 27.013 0.973548C28.0613 1.36484 28.6381 2.41707 28.4481 3.59205C28.0818 5.85379 27.7117 8.11443 27.3415 10.3756L26.3278 16.5788H27.9383C29.8245 16.5805 31.7102 16.5816 33.5959 16.575C34.062 16.5739 35.2965 16.5695 35.9569 17.7631C36.641 18.9995 35.9591 20.0495 35.6677 20.4978C30.7541 28.064 25.7348 35.806 20.7489 43.5092C20.532 43.8446 19.9008 44.8195 18.6857 44.8195V44.8201ZM14.6759 24.4568C15.3891 24.4568 16.0976 24.4573 16.7979 24.4579H19.5555C20.0912 24.459 20.525 24.9002 20.525 25.4438C20.525 25.492 20.5261 25.5315 20.5272 25.5655C20.5293 25.6597 20.532 25.7666 20.5153 25.8943C20.1317 28.8307 19.747 31.767 19.3623 34.7039L19.0154 37.3542C18.9523 37.8376 18.8875 38.3215 18.8228 38.8049C18.6652 39.9842 18.5023 41.2036 18.3625 42.4011C18.3447 42.554 18.3658 42.6817 18.4203 42.7513C18.4607 42.8028 18.532 42.8351 18.6318 42.8466C18.7397 42.8592 18.8417 42.8702 19.1282 42.4274C24.1146 34.7231 29.1344 26.9805 34.0486 19.4132C34.3707 18.9178 34.3243 18.8345 34.266 18.7288C34.2131 18.6334 34.1683 18.5413 33.6018 18.5452C31.7134 18.5512 29.825 18.5506 27.9367 18.5495H25.3323C24.6557 18.549 24.1405 17.9319 24.2516 17.254L25.4283 10.0528C25.7985 7.79273 26.1686 5.53319 26.5344 3.27255C26.5921 2.91578 26.4249 2.8533 26.3439 2.82316C26.2145 2.77494 26.1206 2.73931 25.7688 3.21556L21.1687 9.44506C17.6628 14.1932 14.1563 18.9419 10.6461 23.6879C10.345 24.0951 10.3898 24.1839 10.4421 24.2864C10.4891 24.379 10.5376 24.4705 11.0054 24.4639C12.2248 24.4584 13.4565 24.4568 14.6764 24.4568H14.6759Z"></path>
</g>
<defs>
<linearGradient gradientUnits="userSpaceOnUse" y2="22.8202" x2="36.2517" y1="22.8202" x1="8.46143" id="paint0_linear_92_606">
<stop stop-color="#9E6718"></stop>
<stop stop-color="#FFB545" offset="1"></stop>
</linearGradient>
<clipPath id="clip0_92_606">
<rect transform="translate(0 0.902344)" fill="white" height="44" width="44"></rect>
</clipPath>
</defs>
</svg>
