<svg xmlns="http://www.w3.org/2000/svg" fill="none" viewBox="0 0 45 45" height="45" width="45">
<circle stroke-width="2.1602" stroke="#322D2D" r="21.2419" cy="22.4998" cx="22.6423"></circle>
<g clip-path="url(#clip0_625_1873)">
<path fill="#322D2D" d="M32.5236 22.9335L30.2559 16.5208C29.2079 13.5579 26.5313 11.4906 23.4482 11.1824V9.53906H21.8449V11.1824C18.7619 11.4906 16.0852 13.558 15.0372 16.5209L12.7695 22.9335C12.373 24.0547 12.1719 25.2301 12.1719 26.4268C12.1719 32.2026 16.8708 36.9015 22.6466 36.9015C28.4224 36.9015 33.1213 32.2026 33.1213 26.4268C33.1213 25.23 32.9202 24.0547 32.5236 22.9335ZM22.6466 35.2983C17.7548 35.2983 13.7751 31.3186 13.7751 26.4268C13.7751 25.4127 13.9454 24.4172 14.281 23.4681L16.5487 17.0555C17.4606 14.4776 19.9111 12.7456 22.6466 12.7456C25.3821 12.7456 27.8326 14.4776 28.7444 17.0554L31.0121 23.4681C31.3478 24.4172 31.518 25.4126 31.518 26.4268C31.518 31.3186 27.5383 35.2983 22.6466 35.2983Z"></path>
<path fill="#322D2D" d="M22.6493 20.7617C19.5256 20.7617 16.9844 23.303 16.9844 26.4266C16.9844 29.5502 19.5256 32.0915 22.6493 32.0915C25.7729 32.0915 28.3142 29.5502 28.3142 26.4266C28.3142 23.303 25.7729 20.7617 22.6493 20.7617ZM22.6493 30.4882C20.4097 30.4882 18.5876 28.6662 18.5876 26.4266C18.5876 24.1871 20.4097 22.365 22.6493 22.365C24.8888 22.365 26.7109 24.1871 26.7109 26.4266C26.7109 28.6662 24.8888 30.4882 22.6493 30.4882Z"></path>
</g>
<defs>
<clipPath id="clip0_625_1873">
<rect transform="translate(8.96484 9.53906)" fill="white" height="27.3625" width="27.3625"></rect>
</clipPath>
</defs>
</svg>
