<svg xmlns="http://www.w3.org/2000/svg" fill="none" viewBox="0 0 44 45" height="45" width="44">
<g clip-path="url(#clip0_92_614)">
<path fill="url(#paint0_linear_92_614)" d="M19.4279 16.1497C19.4279 16.9812 19.3077 17.7796 19.4505 18.5276C19.8793 20.777 21.7723 22.3386 24.0339 22.4316C26.3886 22.5286 28.453 21.0486 29.108 18.7463C29.8153 16.2591 31.2577 14.3436 33.4395 12.9769C33.8853 12.6978 34.0535 12.2417 33.8473 11.9017C33.6426 11.5649 33.1542 11.514 32.7099 11.79C30.1818 13.3603 28.5094 15.5759 27.6815 18.4429C27.1166 20.4005 25.0466 21.4638 23.1219 20.812C21.1888 20.1575 20.1653 18.05 20.9504 16.1644C21.2495 15.4459 21.044 14.9321 20.1709 14.8307C18.2096 14.6033 16.8097 12.6127 17.1989 10.6794C17.609 8.64187 19.533 7.38255 21.503 7.90266C24.5567 8.70907 27.4232 8.27565 30.141 6.69225C32.4711 5.33471 34.8104 3.99307 37.1454 2.64348C37.4004 2.49596 37.6658 2.36076 37.8999 2.18461C38.2057 1.95437 38.3089 1.63427 38.1153 1.28475C37.9277 0.945959 37.6123 0.837801 37.2449 0.938404C37.0922 0.980156 36.951 1.07241 36.8114 1.15392C34.3665 2.57827 31.9269 4.01176 29.4777 5.42815C27.6553 6.4819 25.6948 6.98213 23.588 6.76104C22.7704 6.67515 21.9667 6.45605 21.1487 6.37016C17.7364 6.01189 14.9778 9.34291 15.9647 12.6258C16.5003 14.4068 17.6515 15.6045 19.4275 16.1505L19.4279 16.1497ZM15.265 20.3337C15.2225 20.2287 15.1928 20.1627 15.169 20.0943C14.2415 17.4361 11.6634 16.0877 8.99207 16.8635C6.42825 17.6082 4.96048 20.1575 5.61304 22.8523C6.27036 25.5662 5.84749 28.0892 4.47057 30.487C3.0746 32.9182 1.69173 35.3569 0.303703 37.7924C0.223571 37.9332 0.139075 38.0736 0.0744143 38.2215C-0.0862464 38.5885 0.0180839 38.9022 0.340595 39.107C0.66033 39.3098 0.995139 39.2748 1.26489 38.9909C1.37438 38.8756 1.44935 38.7253 1.52988 38.5849C2.94885 36.116 4.35632 33.6403 5.786 31.1777C7.38071 28.4312 7.83214 25.5272 7.08279 22.4316C6.62104 20.5229 7.72662 18.6823 9.60496 18.1757C11.442 17.6806 13.3458 18.7737 13.8904 20.6454C13.9765 20.9421 14.0011 21.2562 14.0856 21.5536C14.2264 22.0491 14.5708 22.1934 15.0325 21.9803C15.2194 21.894 15.405 21.7994 15.601 21.7409C16.8696 21.362 17.9784 21.6848 18.9725 22.5199C19.32 22.8122 19.7016 22.7792 19.9916 22.4591C20.2451 22.1795 20.2316 21.8236 19.9293 21.5079C19.767 21.3385 19.5822 21.1858 19.389 21.0526C18.1374 20.1905 16.7641 19.9885 15.2646 20.3337H15.265ZM21.6208 25.2342C21.6041 24.9988 21.6041 24.7606 21.5672 24.5284C21.4792 23.9749 21.1721 23.7005 20.7318 23.7589C20.2907 23.8174 20.0915 24.149 20.1518 24.7236C20.3323 26.4374 19.2934 28.0244 17.6352 28.4706C14.5612 29.2973 12.3152 31.1642 10.7395 33.8928C9.79538 35.5275 8.86473 37.1701 7.92775 38.8088C6.98322 40.4602 6.03512 42.1096 5.09536 43.7638C4.86131 44.1757 4.94025 44.5535 5.27625 44.7809C5.61264 45.0088 6.0502 44.9098 6.32154 44.5392C6.39096 44.4445 6.44451 44.338 6.50322 44.2362C7.96146 41.7064 9.41653 39.1742 10.8791 36.6468C11.4405 35.677 11.9661 34.6805 12.6016 33.7612C13.9154 31.8608 15.7212 30.629 17.945 29.9919C20.1721 29.3541 21.6057 27.4685 21.6208 25.235V25.2342ZM36.0453 11.4778C36.3373 11.355 36.5349 11.2961 36.7078 11.1951C38.9325 9.89921 41.1544 8.59853 43.3742 7.29467C43.5242 7.20679 43.6817 7.10539 43.7856 6.97099C44.0082 6.6831 44.0986 6.33954 43.8523 6.03376C43.5992 5.71922 43.2517 5.69417 42.8958 5.88544C42.8181 5.92719 42.7435 5.97451 42.6673 6.01944C40.4585 7.31296 38.2494 8.60648 36.041 9.9012C35.9144 9.97556 35.7827 10.0467 35.6713 10.1406C35.4221 10.3497 35.2892 10.6424 35.4551 10.9243C35.588 11.1502 35.8486 11.3009 36.0449 11.4778H36.0453ZM7.1653 37.1995C6.98957 36.994 6.83446 36.6933 6.58851 36.555C6.26044 36.3705 5.94785 36.576 5.77053 36.8783C5.04736 38.1113 4.33371 39.3508 3.63434 40.5978C3.42687 40.968 3.59744 41.4133 3.95407 41.5692C4.31506 41.7267 4.74666 41.5549 4.99222 41.1322C5.64359 40.0105 6.28861 38.8851 6.93086 37.7582C7.009 37.621 7.05502 37.4652 7.1653 37.1995ZM26.4021 26.8713C26.1939 27.0363 25.8888 27.1584 25.8313 27.354C25.7615 27.591 25.8059 27.9787 25.9642 28.1477C26.9016 29.1497 27.881 30.1128 28.8585 31.0767C29.1885 31.4024 29.603 31.4059 29.8887 31.1316C30.1894 30.8429 30.1822 30.4285 29.8351 30.0754C28.8831 29.1072 27.9231 28.1461 26.9555 27.1933C26.8274 27.0673 26.6374 27.0049 26.4021 26.8709V26.8713ZM6.3497 6.83739C6.13707 7.03183 5.84669 7.17697 5.77807 7.39329C5.70983 7.6092 5.77846 7.97782 5.93317 8.13767C6.90388 9.1429 7.90989 10.1151 8.9167 11.0846C9.27293 11.4277 9.64622 11.4242 9.92866 11.1255C10.2302 10.8074 10.2242 10.4161 9.87511 10.0694C8.90401 9.10512 7.92536 8.14801 6.93958 7.19884C6.79955 7.06404 6.602 6.98889 6.3497 6.83699V6.83739ZM5.43453 15.298C6.09661 15.298 6.75909 15.3079 7.42077 15.2948C7.90791 15.2848 8.15386 15.0387 8.15703 14.6029C8.16021 14.1671 7.91783 13.8963 7.43545 13.8903C6.11129 13.8736 4.78713 13.8736 3.46297 13.8887C2.95877 13.8943 2.71242 14.1734 2.72988 14.6327C2.74654 15.0673 2.98654 15.288 3.49232 15.2964C4.13972 15.3071 4.78713 15.2992 5.43453 15.298ZM30.4036 22.9776C29.7712 22.9776 29.1389 22.9728 28.5066 22.9792C27.9937 22.9843 27.7184 23.2241 27.7069 23.6579C27.6946 24.1132 27.9782 24.39 28.5042 24.3936C29.7835 24.4023 31.0633 24.4015 32.3426 24.3936C32.8702 24.3904 33.165 24.112 33.1511 23.6667C33.1384 23.25 32.8357 22.9843 32.345 22.9792C31.698 22.9724 31.051 22.9776 30.4036 22.9776ZM21.6874 31.7471C21.6874 32.3817 21.6827 33.0164 21.689 33.6506C21.6942 34.1914 21.9409 34.4602 22.4086 34.4534C22.8549 34.4471 23.0985 34.1827 23.1009 33.6677C23.1068 32.3837 23.1064 31.1002 23.1009 29.8162C23.0985 29.2758 22.8474 29.0062 22.3809 29.0125C21.937 29.0189 21.6946 29.2857 21.689 29.7991C21.6819 30.4484 21.6874 31.0978 21.687 31.7471H21.6874ZM14.1054 6.6668C14.1054 5.98763 14.1154 5.30806 14.1023 4.62929C14.0928 4.13622 13.8508 3.89525 13.41 3.89287C12.9892 3.89088 12.7107 4.1223 12.7039 4.57402C12.6845 5.91725 12.6849 7.26127 12.7019 8.60489C12.7075 9.04269 13.0431 9.33893 13.4358 9.33456C13.8551 9.32979 14.0939 9.07053 14.1027 8.57149C14.1138 7.93686 14.1054 7.30183 14.105 6.6668H14.1054ZM20.0788 9.27611C19.8805 9.33774 19.7782 9.35643 19.6881 9.40017C18.7237 9.86621 18.2834 11.3725 18.842 12.2839C19.0379 12.604 19.4358 12.7578 19.754 12.6374C20.0904 12.5101 20.3073 12.1487 20.1598 11.7677C19.9646 11.2635 20.0304 10.9088 20.468 10.5744C20.7362 10.3692 20.7917 10.0165 20.6108 9.73021C20.4847 9.5302 20.2379 9.40653 20.0788 9.27611ZM10.8097 19.5424C9.86995 19.532 9.1087 19.901 8.72034 20.4848C8.48907 20.8323 8.53945 21.228 8.84569 21.4733C9.14956 21.7167 9.59981 21.7091 9.83504 21.3858C10.1762 20.917 10.5467 20.8021 11.0894 21.0307C11.4702 21.1914 11.8617 20.9313 11.9819 20.5309C12.0918 20.1651 11.8935 19.7873 11.4952 19.6712C11.229 19.5933 10.9482 19.5674 10.8097 19.5428V19.5424Z"></path>
<path fill="url(#paint1_linear_92_614)" d="M19.4281 16.1505C17.6521 15.6045 16.5005 14.4068 15.9653 12.6258C14.9788 9.34331 17.737 6.01228 21.1493 6.37016C21.9669 6.45605 22.7706 6.67515 23.5886 6.76104C25.6954 6.98213 27.6559 6.48189 29.4783 5.42815C31.9279 4.01176 34.3671 2.57867 36.812 1.15392C36.9516 1.07281 37.0928 0.980554 37.2456 0.938404C37.6129 0.837801 37.9283 0.945959 38.1159 1.28475C38.3095 1.63467 38.2063 1.95477 37.9005 2.18461C37.6664 2.36076 37.4011 2.49636 37.146 2.64348C34.8114 3.99307 32.4717 5.3347 30.1416 6.69225C27.4238 8.27565 24.5573 8.70907 21.5036 7.90266C19.5336 7.38255 17.6096 8.64187 17.1995 10.6794C16.8103 12.6127 18.2098 14.6033 20.1715 14.8307C21.0446 14.9321 21.2501 15.4455 20.951 16.1644C20.1659 18.05 21.1894 20.1575 23.1225 20.812C25.0472 21.4638 27.1172 20.4005 27.6821 18.4429C28.5096 15.5759 30.1824 13.3599 32.7106 11.79C33.1549 11.514 33.6436 11.5649 33.8479 11.9017C34.0542 12.2417 33.886 12.6974 33.4401 12.9769C31.2579 14.3436 29.8159 16.2591 29.1086 18.7463C28.4536 21.0486 26.3892 22.5286 24.0345 22.4316C21.7729 22.3386 19.8799 20.777 19.4511 18.5276C19.3083 17.7792 19.4285 16.9808 19.4285 16.1497L19.4281 16.1505Z"></path>
<path fill="url(#paint2_linear_92_614)" d="M15.2647 20.3365C16.7638 19.9914 18.1375 20.1934 19.3891 21.0555C19.5823 21.1887 19.7675 21.3414 19.9294 21.5108C20.2317 21.8265 20.2447 22.1824 19.9917 22.4619C19.7017 22.782 19.3201 22.815 18.9726 22.5227C17.9784 21.6873 16.8697 21.3648 15.6011 21.7438C15.4051 21.8022 15.2194 21.8973 15.0326 21.9832C14.5708 22.1963 14.2265 22.0519 14.0857 21.5565C14.0012 21.2594 13.977 20.9449 13.8905 20.6483C13.3459 18.7766 11.4421 17.6835 9.60504 18.1785C7.7267 18.6847 6.62072 20.5258 7.08287 22.4345C7.83183 25.5301 7.38079 28.4345 5.78608 31.1806C4.356 33.6431 2.94853 36.1188 1.52996 38.5878C1.44943 38.7281 1.37446 38.8785 1.26497 38.9938C0.995218 39.2777 0.66041 39.3131 0.340675 39.1099C0.0177669 38.9051 -0.0861667 38.5914 0.0744939 38.2243C0.139155 38.076 0.223651 37.9361 0.303783 37.7953C1.69181 35.3593 3.07468 32.9206 4.47065 30.4899C5.84757 28.0921 6.27044 25.5691 5.61312 22.8552C4.96056 20.1604 6.42833 17.6115 8.99215 16.8663C11.6635 16.0901 14.2416 17.4389 15.1691 20.0971C15.1929 20.1655 15.2226 20.2315 15.2651 20.3365H15.2647Z"></path>
<path fill="url(#paint3_linear_92_614)" d="M21.6202 25.2337C21.6048 27.4672 20.1715 29.3524 17.9445 29.9906C15.721 30.6277 13.9153 31.8596 12.601 33.7599C11.9655 34.6792 11.4399 35.6757 10.8786 36.6455C9.41597 39.1729 7.9609 41.7047 6.50266 44.2349C6.44395 44.3371 6.39 44.4433 6.32097 44.5379C6.04963 44.9089 5.61208 45.0075 5.27568 44.7797C4.93969 44.5522 4.86074 44.1744 5.09479 43.7625C6.03456 42.1083 6.98266 40.4589 7.92718 38.8075C8.86417 37.1688 9.79481 35.5262 10.7389 33.8915C12.3146 31.1629 14.5607 29.296 17.6347 28.4693C19.2928 28.0235 20.3322 26.4361 20.1513 24.7223C20.0906 24.1477 20.2901 23.8161 20.7312 23.7576C21.1712 23.6996 21.4786 23.9736 21.5667 24.5271C21.6036 24.7593 21.6036 24.9975 21.6202 25.2329V25.2337Z"></path>
<path fill="url(#paint4_linear_92_614)" d="M36.0448 11.4792C35.8484 11.3022 35.5878 11.1515 35.4549 10.9256C35.2891 10.6437 35.422 10.3511 35.6711 10.1419C35.7826 10.0481 35.9143 9.97688 36.0408 9.90252C38.2492 8.6078 40.4584 7.31468 42.6672 6.02076C42.7433 5.97623 42.8179 5.92851 42.8957 5.88676C43.2515 5.69549 43.599 5.72054 43.8521 6.03508C44.0984 6.34086 44.008 6.68442 43.7854 6.97231C43.6815 7.10672 43.524 7.20811 43.3741 7.29599C41.1542 8.59985 38.9323 9.90053 36.7076 11.1964C36.5347 11.297 36.3371 11.3559 36.0452 11.4792H36.0448Z"></path>
<path fill="url(#paint5_linear_92_614)" d="M7.16483 37.1989C7.05455 37.4649 7.00853 37.6204 6.93038 37.7576C6.28814 38.8845 5.64311 40.0098 4.99174 41.1316C4.74619 41.5539 4.31499 41.726 3.9536 41.5686C3.59657 41.4127 3.42639 40.9669 3.63386 40.5971C4.33323 39.3501 5.04688 38.1111 5.77006 36.8776C5.94738 36.5754 6.25997 36.3698 6.58804 36.5543C6.83399 36.6923 6.98909 36.9933 7.16483 37.1989Z"></path>
<path fill="url(#paint6_linear_92_614)" d="M26.4017 26.8711C26.6369 27.0051 26.8273 27.0675 26.9551 27.1936C27.9226 28.1463 28.8822 29.1074 29.8347 30.0757C30.1818 30.4288 30.1889 30.8431 29.8882 31.1318C29.6026 31.4062 29.1877 31.4026 28.858 31.0769C27.8809 30.113 26.9015 29.15 25.9637 28.1479C25.8055 27.9789 25.761 27.5912 25.8308 27.3542C25.8888 27.1586 26.1934 27.0365 26.4017 26.8715V26.8711Z"></path>
<path fill="url(#paint7_linear_92_614)" d="M6.34995 6.83594C6.60224 6.98784 6.7998 7.06259 6.93983 7.19779C7.92561 8.14696 8.90425 9.10368 9.87536 10.0683C10.2244 10.4151 10.2304 10.8064 9.92891 11.1245C9.64607 11.4231 9.27318 11.4267 8.91695 11.0835C7.91014 10.1137 6.90413 9.14185 5.93342 8.13662C5.77871 7.97637 5.71008 7.60815 5.77831 7.39224C5.84694 7.17632 6.13692 7.03078 6.34995 6.83634V6.83594Z"></path>
<path fill="url(#paint8_linear_92_614)" d="M5.43501 15.2997C4.78761 15.3001 4.14021 15.3084 3.4928 15.2977C2.98702 15.2893 2.74702 15.0683 2.73036 14.634C2.7129 14.1748 2.95925 13.896 3.46345 13.89C4.78761 13.8749 6.11177 13.8749 7.43593 13.8916C7.91831 13.8976 8.16069 14.1684 8.15752 14.6042C8.15434 15.04 7.90839 15.2862 7.42125 15.2961C6.75957 15.3096 6.09709 15.2993 5.43501 15.3001V15.2997Z"></path>
<path fill="url(#paint9_linear_92_614)" d="M30.4036 22.9785C31.0507 22.9785 31.6981 22.9733 32.3451 22.98C32.8358 22.9852 33.1384 23.2508 33.1511 23.6676C33.1646 24.1129 32.8703 24.3913 32.3427 24.3944C31.0633 24.402 29.7836 24.4028 28.5043 24.3944C27.9783 24.3909 27.6946 24.1141 27.7069 23.6588C27.7188 23.225 27.9937 22.9852 28.5067 22.98C29.139 22.9737 29.7713 22.9785 30.4036 22.9785Z"></path>
<path fill="url(#paint10_linear_92_614)" d="M21.6878 31.7464C21.6878 31.0971 21.6827 30.4477 21.6898 29.7984C21.6954 29.285 21.9378 29.0182 22.3817 29.0118C22.8482 29.0055 23.0993 29.2751 23.1016 29.8155C23.1072 31.0994 23.1072 32.383 23.1016 33.667C23.0993 34.1819 22.8557 34.4464 22.4094 34.4527C21.9417 34.4595 21.695 34.1907 21.6898 33.6499C21.6839 33.0153 21.6882 32.381 21.6886 31.7464H21.6878Z"></path>
<path fill="url(#paint11_linear_92_614)" d="M14.1061 6.66848C14.1061 7.30351 14.1149 7.93854 14.1034 8.57317C14.0946 9.07221 13.8558 9.33147 13.4365 9.33624C13.0434 9.34061 12.7082 9.04437 12.7026 8.60657C12.6856 7.26295 12.6852 5.91893 12.7046 4.5757C12.711 4.12398 12.9898 3.89256 13.4107 3.89454C13.8515 3.89653 14.0931 4.1379 14.103 4.63097C14.1165 5.31014 14.1061 5.98931 14.1065 6.66848H14.1061Z"></path>
<path fill="url(#paint12_linear_92_614)" d="M20.0784 9.27344C20.2375 9.40386 20.4838 9.52753 20.6104 9.72754C20.7913 10.0142 20.7357 10.3669 20.4676 10.5717C20.0304 10.9061 19.9642 11.2608 20.1593 11.765C20.3069 12.146 20.0899 12.5074 19.7535 12.6347C19.4354 12.7552 19.0375 12.6009 18.8415 12.2812C18.283 11.3698 18.7233 9.86353 19.6877 9.3975C19.7781 9.35376 19.8805 9.33547 20.0784 9.27344Z"></path>
<path fill="url(#paint13_linear_92_614)" d="M10.8096 19.5436C10.9477 19.5682 11.229 19.5945 11.4951 19.672C11.8934 19.7885 12.0918 20.1659 11.9819 20.5317C11.8617 20.9321 11.4705 21.1918 11.0893 21.0315C10.547 20.8029 10.1761 20.9178 9.83497 21.3866C9.59934 21.7103 9.14949 21.7179 8.84562 21.4741C8.53938 21.2288 8.48939 20.8335 8.72027 20.4856C9.10823 19.9015 9.86988 19.5328 10.8096 19.5432V19.5436Z"></path>
</g>
<defs>
<linearGradient gradientUnits="userSpaceOnUse" y2="22.9024" x2="43.9996" y1="22.9024" x1="0" id="paint0_linear_92_614">
<stop stop-color="#9E6718"></stop>
<stop stop-color="#FFB545" offset="1"></stop>
</linearGradient>
<linearGradient gradientUnits="userSpaceOnUse" y2="11.6692" x2="38.2142" y1="11.6692" x1="15.7627" id="paint1_linear_92_614">
<stop stop-color="#9E6718"></stop>
<stop stop-color="#FFB545" offset="1"></stop>
</linearGradient>
<linearGradient gradientUnits="userSpaceOnUse" y2="27.9437" x2="20.1697" y1="27.9437" x1="0" id="paint2_linear_92_614">
<stop stop-color="#9E6718"></stop>
<stop stop-color="#FFB545" offset="1"></stop>
</linearGradient>
<linearGradient gradientUnits="userSpaceOnUse" y2="34.3257" x2="21.6202" y1="34.3257" x1="4.96045" id="paint3_linear_92_614">
<stop stop-color="#9E6718"></stop>
<stop stop-color="#FFB545" offset="1"></stop>
</linearGradient>
<linearGradient gradientUnits="userSpaceOnUse" y2="8.62239" x2="43.9994" y1="8.62239" x1="35.3813" id="paint4_linear_92_614">
<stop stop-color="#9E6718"></stop>
<stop stop-color="#FFB545" offset="1"></stop>
</linearGradient>
<linearGradient gradientUnits="userSpaceOnUse" y2="39.0552" x2="7.16483" y1="39.0552" x1="3.54395" id="paint5_linear_92_614">
<stop stop-color="#9E6718"></stop>
<stop stop-color="#FFB545" offset="1"></stop>
</linearGradient>
<linearGradient gradientUnits="userSpaceOnUse" y2="29.1005" x2="30.1049" y1="29.1005" x1="25.7988" id="paint6_linear_92_614">
<stop stop-color="#9E6718"></stop>
<stop stop-color="#FFB545" offset="1"></stop>
</linearGradient>
<linearGradient gradientUnits="userSpaceOnUse" y2="9.09041" x2="10.1466" y1="9.09041" x1="5.75195" id="paint7_linear_92_614">
<stop stop-color="#9E6718"></stop>
<stop stop-color="#FFB545" offset="1"></stop>
</linearGradient>
<linearGradient gradientUnits="userSpaceOnUse" y2="14.591" x2="8.15755" y1="14.591" x1="2.72949" id="paint8_linear_92_614">
<stop stop-color="#9E6718"></stop>
<stop stop-color="#FFB545" offset="1"></stop>
</linearGradient>
<linearGradient gradientUnits="userSpaceOnUse" y2="23.6885" x2="33.1516" y1="23.6885" x1="27.7065" id="paint9_linear_92_614">
<stop stop-color="#9E6718"></stop>
<stop stop-color="#FFB545" offset="1"></stop>
</linearGradient>
<linearGradient gradientUnits="userSpaceOnUse" y2="31.7323" x2="23.1058" y1="31.7323" x1="21.686" id="paint10_linear_92_614">
<stop stop-color="#9E6718"></stop>
<stop stop-color="#FFB545" offset="1"></stop>
</linearGradient>
<linearGradient gradientUnits="userSpaceOnUse" y2="6.61541" x2="14.1099" y1="6.61541" x1="12.6899" id="paint11_linear_92_614">
<stop stop-color="#9E6718"></stop>
<stop stop-color="#FFB545" offset="1"></stop>
</linearGradient>
<linearGradient gradientUnits="userSpaceOnUse" y2="10.9745" x2="20.7155" y1="10.9745" x1="18.5957" id="paint12_linear_92_614">
<stop stop-color="#9E6718"></stop>
<stop stop-color="#FFB545" offset="1"></stop>
</linearGradient>
<linearGradient gradientUnits="userSpaceOnUse" y2="20.5938" x2="12.0119" y1="20.5938" x1="8.57617" id="paint13_linear_92_614">
<stop stop-color="#9E6718"></stop>
<stop stop-color="#FFB545" offset="1"></stop>
</linearGradient>
<clipPath id="clip0_92_614">
<rect transform="translate(0 0.902344)" fill="white" height="44" width="44"></rect>
</clipPath>
</defs>
</svg>
