<svg xmlns="http://www.w3.org/2000/svg" fill="none" viewBox="0 0 44 45" height="45" width="44">
<g clip-path="url(#clip0_92_638)">
<path fill="url(#paint0_linear_92_638)" d="M34.7025 28.5557C35.3964 29.2955 36.0628 30.0331 36.7587 30.7407C37.5952 31.5918 37.6136 32.4011 36.7803 33.2537C35.9649 34.0879 35.1531 34.9268 34.3346 35.7577C33.5544 36.5502 32.7153 36.5566 31.9156 35.7799C31.2545 35.1377 30.5938 34.4944 29.9452 33.8395C29.7857 33.6787 29.6694 33.6687 29.4657 33.7657C28.8956 34.0362 28.3144 34.2872 27.7248 34.5118C27.4842 34.6035 27.3905 34.7122 27.3984 34.9747C27.4268 35.8822 27.4363 36.7907 27.4426 37.6992C27.4505 38.8022 26.8409 39.4234 25.7512 39.4323C24.6573 39.4413 23.5624 39.4176 22.4706 39.464C21.6241 39.4998 20.9276 39.3232 20.5412 38.4321C19.8395 39.3358 18.9504 39.812 17.8696 39.9063C16.7868 40.0007 15.824 39.7107 15.0048 38.971C14.8832 38.8613 14.6742 38.7395 14.5384 38.7701C12.7733 39.1671 10.5123 37.8958 10.1923 35.6027C10.1865 35.5616 10.1718 35.5215 10.1528 35.4493C8.81411 35.5173 7.71283 35.0259 6.89898 33.9492C6.09566 32.8873 5.90878 31.7072 6.32571 30.4444C3.632 29.5633 2.81183 26.0316 4.90542 24.0733C3.1219 22.3913 3.47618 19.2235 5.71716 18.0208C4.27792 15.5689 6.03617 12.4016 8.95414 12.3288C8.93203 11.1615 9.34369 10.1665 10.2197 9.38401C11.1004 8.59732 12.1443 8.32946 13.3313 8.48448C13.3608 8.29097 13.3803 8.12382 13.4119 7.95931C13.6993 6.44076 14.8311 5.32452 16.3846 5.0245C17.8849 4.7345 19.3341 5.33981 20.1559 6.62847C20.3349 6.90898 20.4596 6.96171 20.7634 6.77875C21.0455 6.60844 21.3961 6.47925 21.722 6.4666C22.9728 6.41756 24.2251 6.41493 25.477 6.41071C26.5067 6.40754 27.111 7.0118 27.1305 8.04209C27.1484 8.97906 27.1642 9.91603 27.1726 10.853C27.1747 11.0597 27.2126 11.1804 27.4437 11.2627C28.0654 11.4836 28.666 11.7625 29.2856 11.9882C29.403 12.0309 29.6178 11.9835 29.7073 11.8954C30.3859 11.2295 31.0413 10.5408 31.7093 9.86436C32.4179 9.14674 33.2749 9.12723 33.995 9.82323C34.9063 10.7043 35.8101 11.5928 36.7087 12.487C37.3752 13.1503 37.3752 14.0288 36.7161 14.7142C36.067 15.3891 35.4164 16.063 34.751 16.721C34.5572 16.9124 34.5225 17.0569 34.6488 17.3116C34.9163 17.852 35.1563 18.4083 35.3621 18.9751C35.4595 19.243 35.589 19.3247 35.8596 19.3179C36.7803 19.2947 37.7016 19.2857 38.6223 19.2841C39.632 19.282 40.2442 19.8736 40.2642 20.8796C40.2895 22.1335 40.3047 23.3879 40.3089 24.6423C40.3121 25.5998 39.6804 26.2436 38.7207 26.2631C37.7858 26.2821 36.8498 26.2863 35.9144 26.281C35.6669 26.2795 35.5411 26.3364 35.4522 26.5979C35.2163 27.2902 34.931 27.9657 34.7015 28.5552L34.7025 28.5557ZM19.759 36.419C19.6753 36.3873 19.5837 36.352 19.4915 36.3182C18.1676 35.8389 17.3469 34.3768 17.6227 32.9885C17.7175 32.5124 18.0407 32.263 18.4745 32.3305C18.8867 32.3948 19.113 32.756 19.0441 33.2395C18.9035 34.2207 19.4547 34.9563 20.3828 35.0269C21.3382 35.0997 21.9205 34.5276 21.9289 33.5C21.9394 32.2461 21.9431 30.9917 21.9526 29.7379C22.0031 23.1074 22.0563 16.4769 22.1042 9.84643C22.1121 8.77184 21.3251 8.13806 20.3228 8.39062C19.6532 8.55935 19.4568 8.46128 19.1925 7.82433C18.7035 6.64693 17.5317 6.11754 16.3241 6.52829C15.4086 6.83938 14.8511 7.59391 14.8116 8.57622C14.7727 9.54219 15.3591 10.4364 16.3041 10.8514C16.8152 11.076 17.001 11.4319 16.8278 11.8559C16.6625 12.2613 16.2967 12.3837 15.7713 12.1844C14.8974 11.8527 14.2657 11.2311 13.8304 10.4248C13.6646 10.1174 13.4456 9.98827 13.136 9.92763C11.4641 9.60072 10.0507 11.1372 10.5039 12.7913C10.7556 13.7092 10.3702 14.1 9.43529 13.8759C8.274 13.5975 7.02164 14.3604 6.73263 15.522C6.46573 16.5945 6.90003 17.5736 7.9313 18.131C8.90518 18.6572 9.91802 18.7568 10.9635 18.3234C11.3852 18.1484 11.7521 18.2728 11.929 18.6139C12.1195 18.9809 11.9953 19.3674 11.5926 19.6063C11.4462 19.6933 11.282 19.7592 11.1177 19.8051C9.80273 20.1747 8.50931 20.1204 7.32275 19.4191C6.83686 19.1317 6.48469 19.2166 6.12566 19.5203C5.88877 19.7207 5.65978 19.9611 5.5108 20.2295C4.8612 21.4038 5.28971 22.7678 6.48784 23.3879C6.78106 23.5397 6.98163 23.7333 6.98584 24.0776C6.99058 24.4435 6.78211 24.6586 6.46626 24.7973C6.3615 24.8432 6.25938 24.8996 6.16515 24.9639C5.38341 25.4944 5.0644 26.251 5.19284 27.1669C5.31866 28.0643 5.8235 28.6933 6.69473 29.0028C6.98268 29.1051 7.19904 29.0925 7.46488 28.8621C8.21925 28.2077 9.12575 27.8439 10.1086 27.682C10.2765 27.6541 10.455 27.6588 10.625 27.6794C11.0756 27.7347 11.362 28.0479 11.3494 28.4481C11.3367 28.8462 11.0309 29.1215 10.5603 29.132C9.50214 29.1552 8.62091 29.5486 8.00289 30.4186C7.47647 31.1599 7.40487 31.9793 7.84391 32.7844C8.28505 33.5938 8.98783 34.0077 9.92907 33.9961C10.2281 33.9924 10.3834 33.887 10.495 33.5938C10.9503 32.3948 11.8321 31.636 13.045 31.2696C13.3103 31.1894 13.613 31.1715 13.8888 31.2047C14.2289 31.2453 14.3984 31.5063 14.4205 31.8443C14.441 32.1691 14.2973 32.4022 13.9878 32.514C13.8262 32.5725 13.6604 32.6289 13.4919 32.6568C12.349 32.8472 11.3241 34.2134 11.6894 35.695C12.0069 36.9816 13.2613 37.6385 14.6406 37.2468C15.1049 37.115 15.4407 37.1925 15.7266 37.5958C16.2435 38.324 16.9763 38.5771 17.8428 38.479C18.9204 38.3572 19.7721 37.4471 19.759 36.419ZM22.8812 7.87495C23.6161 8.77659 23.5624 9.7879 23.545 10.7987C23.5171 12.4127 23.5081 14.0272 23.4918 15.6412C23.4902 15.7925 23.4918 15.9438 23.4918 16.0957C27.9206 15.9839 30.5269 19.6268 30.6028 22.7357C30.6417 24.3238 30.2158 25.7596 29.2546 27.0145C27.788 28.9301 25.8086 29.8075 23.3713 29.7558C23.3713 31.0249 23.3692 32.2482 23.3718 33.472C23.3739 34.5223 22.9901 35.3755 22.1237 35.9966C22.0315 36.0625 21.9273 36.188 21.9236 36.2892C21.9041 36.8476 21.9141 37.4071 21.9141 37.9686H26.0102C26.0102 37.7524 26.0113 37.5953 26.0102 37.4382C26.0018 36.3573 25.9976 35.2763 25.9823 34.1954C25.9765 33.7615 26.1729 33.5232 26.5804 33.3634C27.5263 32.9917 28.4613 32.5894 29.3867 32.1686C29.8605 31.9529 30.0784 31.9508 30.4685 32.3284C31.0065 32.8493 31.5487 33.3666 32.0688 33.9049C32.4057 34.254 32.7063 34.6378 32.9453 34.9152C34.0261 33.8859 34.9921 32.9664 35.9791 32.0262C35.8596 31.8997 35.7659 31.7937 35.6654 31.6946C34.8963 30.9363 34.124 30.1813 33.3565 29.421C32.9364 29.0049 32.9443 28.8088 33.187 28.2705C33.5639 27.4337 33.9234 26.5863 34.2266 25.7206C34.4856 24.9797 34.5472 24.8827 35.3474 24.879C36.5087 24.8738 37.67 24.8774 38.8434 24.8774V20.7399C38.6665 20.7399 38.5265 20.7394 38.3864 20.7399C37.2788 20.7473 36.1707 20.7499 35.0631 20.7642C34.6246 20.77 34.4009 20.5591 34.243 20.1536C33.8729 19.2055 33.4754 18.2665 33.0448 17.3443C32.8506 16.9277 32.8795 16.6082 33.1954 16.2913C33.6023 15.8837 33.9945 15.4614 34.4072 15.0591C34.8799 14.5982 35.3674 14.1532 35.7301 13.8121C34.7325 12.7438 33.815 11.7615 32.9585 10.8446C32.053 11.7109 31.1676 12.554 30.2869 13.4018C29.8858 13.7878 29.6778 13.7899 29.1704 13.5658C28.2791 13.173 27.3758 12.805 26.4624 12.4686C25.9276 12.2714 25.7549 12.1142 25.7481 11.5464C25.7349 10.4797 25.7312 9.41301 25.7223 8.34686C25.7207 8.19342 25.7097 8.03999 25.7023 7.87495H22.8822H22.8812ZM23.4576 28.2483C25.1822 28.5615 27.3337 27.4685 28.4039 25.7332C29.5583 23.8619 29.4036 21.4728 28.0422 19.6527C26.9036 18.1299 24.9 17.3416 23.4571 17.6448V28.2483H23.4576Z"></path>
<path fill="url(#paint1_linear_92_638)" d="M30.1451 3.52507C30.5173 4.18311 30.841 4.75257 31.1622 5.32413C31.3406 5.64208 31.3675 5.95581 31.0942 6.23737C30.7584 6.58326 30.2357 6.55321 29.9861 6.1277C29.2581 4.88597 28.5453 3.63527 27.8562 2.37139C27.583 1.87048 27.911 1.3643 28.5169 1.3005C29.7471 1.17132 30.979 1.0569 32.2097 0.936681C32.3529 0.922445 32.4961 0.910845 32.6393 0.896608C33.1515 0.847044 33.4679 1.06112 33.5221 1.49454C33.5805 1.96065 33.3173 2.26278 32.8004 2.31919C32.3893 2.36401 31.9781 2.40619 31.4443 2.46209C31.6396 2.57967 31.7349 2.64452 31.8365 2.69725C38.2704 6.04966 42.396 11.2618 43.6178 18.4095C44.9634 26.2801 42.7624 33.2096 36.9233 38.7781C33.8417 41.7171 30.0614 43.3781 25.8774 44.0677C21.3528 44.8138 16.9493 44.3319 12.7521 42.4485C6.66402 39.7167 2.77586 35.0519 0.956016 28.6529C0.20639 26.0191 -0.154209 23.3274 0.0621505 20.5766C0.362211 16.7702 1.59457 13.286 3.75711 10.1566C7.15307 5.24293 11.7466 2.05028 17.6157 0.832808C18.9992 0.545443 20.4384 0.520134 21.855 0.407297C22.4177 0.362479 22.6989 0.624534 22.712 1.08168C22.7257 1.55886 22.4399 1.81776 21.8624 1.81934C18.8518 1.82514 15.9654 2.43045 13.2775 3.78502C6.79089 7.05359 2.66952 12.2219 1.673 19.4651C0.756502 26.1251 2.63109 32.0944 7.331 37.0096C10.1152 39.9212 13.5865 41.6665 17.5136 42.487C22.055 43.4361 26.4859 43.0327 30.7189 41.1208C36.6133 38.4586 40.2624 33.8729 41.8628 27.6368C43.3583 21.8073 42.5271 16.3167 39.2828 11.2354C37.1434 7.88405 34.2254 5.40322 30.6305 3.71964C30.5057 3.66111 30.3752 3.61629 30.1456 3.52507H30.1451Z"></path>
<path fill="url(#paint2_linear_92_638)" d="M13.2759 26.3999C13.3296 25.3632 13.5512 24.5085 13.9913 23.716C14.0813 23.5542 14.1955 23.4023 14.3203 23.2652C14.6746 22.875 15.0357 22.8276 15.3758 23.1102C15.7085 23.387 15.728 23.7772 15.4216 24.1779C14.8272 24.9546 14.6556 25.833 14.7962 26.7837C14.862 27.2277 14.6951 27.562 14.3261 27.6764C13.946 27.7945 13.5628 27.5952 13.4206 27.157C13.329 26.8749 13.3069 26.5696 13.2764 26.3999H13.2759Z"></path>
<path fill="url(#paint3_linear_92_638)" d="M17.0992 15.2072C17.5856 15.1983 17.8888 15.4661 17.8873 15.8953C17.8831 16.9483 18.2642 17.822 19.028 18.5412C19.3307 18.8259 19.3439 19.2072 19.098 19.5088C18.8338 19.8336 18.4426 19.9079 18.1094 19.6153C16.9639 18.6087 16.3827 17.3422 16.4933 15.7999C16.5207 15.4166 16.7955 15.2347 17.0987 15.2072H17.0992Z"></path>
</g>
<defs>
<linearGradient gradientUnits="userSpaceOnUse" y2="22.4384" x2="40.3089" y1="22.4384" x1="3.72363" id="paint0_linear_92_638">
<stop stop-color="#9E6718"></stop>
<stop stop-color="#FFB545" offset="1"></stop>
</linearGradient>
<linearGradient gradientUnits="userSpaceOnUse" y2="22.4027" x2="44.0001" y1="22.4027" x1="0" id="paint1_linear_92_638">
<stop stop-color="#9E6718"></stop>
<stop stop-color="#FFB545" offset="1"></stop>
</linearGradient>
<linearGradient gradientUnits="userSpaceOnUse" y2="25.3198" x2="15.639" y1="25.3198" x1="13.2759" id="paint2_linear_92_638">
<stop stop-color="#9E6718"></stop>
<stop stop-color="#FFB545" offset="1"></stop>
</linearGradient>
<linearGradient gradientUnits="userSpaceOnUse" y2="17.5028" x2="19.2699" y1="17.5028" x1="16.48" id="paint3_linear_92_638">
<stop stop-color="#9E6718"></stop>
<stop stop-color="#FFB545" offset="1"></stop>
</linearGradient>
<clipPath id="clip0_92_638">
<rect transform="translate(0 0.402344)" fill="white" height="44" width="44"></rect>
</clipPath>
</defs>
</svg>
