<svg xmlns="http://www.w3.org/2000/svg" fill="none" viewBox="0 0 46 46" height="46" width="46">
<path fill="#322D2D" d="M41.839 11.5567C41.7709 11.4262 41.6765 11.3113 41.5617 11.2192C41.4469 11.1271 41.3142 11.0598 41.1721 11.0216C41.03 10.9834 40.8815 10.975 40.736 10.9971C40.5905 11.0192 40.4511 11.0713 40.3267 11.15C40.2024 11.2287 40.0957 11.3323 40.0134 11.4544C39.9311 11.5764 39.8751 11.7142 39.8488 11.859C39.8225 12.0038 39.8265 12.1525 39.8606 12.2957C39.8947 12.4388 39.9581 12.5734 40.0469 12.6908C41.9797 15.7579 43.0548 19.2872 43.1601 22.911C43.2653 26.5348 42.397 30.1205 40.6455 33.2947C38.894 36.4688 36.3234 39.1153 33.2015 40.9583C30.0796 42.8013 26.5206 43.7735 22.8953 43.7736C17.8895 43.779 13.0617 41.9167 9.3561 38.5511L11.3163 36.591C11.5452 36.8328 11.8209 37.0258 12.1265 37.1581C12.4321 37.2905 12.7614 37.3595 13.0944 37.361H32.6962C33.3541 37.3583 33.9858 37.1027 34.4604 36.647C34.9249 36.1771 35.1864 35.5436 35.1884 34.8828V17.1012C35.1877 16.8806 35.1192 16.6656 34.9924 16.4851L33.5923 14.399L38.7868 9.14848C38.8867 9.04954 38.966 8.93178 39.0201 8.80201C39.0742 8.67224 39.1021 8.53302 39.1021 8.39242C39.1021 8.25181 39.0742 8.11259 39.0201 7.98282C38.966 7.85305 38.8867 7.73529 38.7868 7.63635C34.9035 3.67478 29.6885 1.29492 24.1513 0.957517C18.6142 0.620115 13.1488 2.34917 8.81326 5.80993C4.47772 9.27069 1.58044 14.217 0.682322 19.6912C-0.215794 25.1655 0.949145 30.7782 3.95161 35.4429C4.01972 35.5733 4.11416 35.6883 4.22895 35.7804C4.34375 35.8725 4.4764 35.9398 4.61853 35.978C4.76066 36.0162 4.90917 36.0245 5.05468 36.0024C5.20019 35.9803 5.33953 35.9283 5.4639 35.8496C5.58827 35.7709 5.69496 35.6672 5.77723 35.5452C5.8595 35.4232 5.91556 35.2854 5.94186 35.1406C5.96816 34.9958 5.96414 34.8471 5.93004 34.7039C5.89594 34.5607 5.83252 34.4262 5.74377 34.3088C3.81093 31.2417 2.73587 27.7124 2.63058 24.0886C2.52529 20.4648 3.39363 16.879 5.14513 13.7049C6.89663 10.5307 9.46722 7.88431 12.5891 6.04128C15.711 4.19825 19.27 3.22605 22.8953 3.22595C27.9012 3.22061 32.729 5.08283 36.4345 8.44842L32.2342 12.6488L30.9461 10.8146C30.8405 10.6792 30.7071 10.5679 30.555 10.4882C30.4029 10.4085 30.2354 10.3622 30.064 10.3526H15.6987C15.5253 10.353 15.3546 10.3952 15.2011 10.4757C15.0475 10.5561 14.9156 10.6724 14.8166 10.8146L10.8262 16.4991C10.7213 16.6897 10.6547 16.899 10.6302 17.1152V34.2528L7.07389 37.8371C6.97398 37.936 6.89468 38.0538 6.84056 38.1836C6.78643 38.3133 6.75857 38.4525 6.75857 38.5932C6.75857 38.7338 6.78643 38.873 6.84056 39.0027C6.89468 39.1325 6.97398 39.2503 7.07389 39.3492C10.9757 43.2211 16.1648 45.5232 21.6538 45.8176C27.1427 46.1119 32.5483 44.3779 36.8418 40.9455C41.1353 37.5132 44.017 32.622 44.9384 27.203C45.8599 21.7839 44.7568 16.2153 41.839 11.5567ZM12.7584 34.8828V18.1653H25.0235V35.2328H13.0944C13.0052 35.226 12.9216 35.1865 12.8596 35.122C12.7976 35.0574 12.7616 34.9723 12.7584 34.8828ZM33.0322 34.8828C33.0286 34.9769 32.9887 35.0659 32.9208 35.1312C32.8529 35.1965 32.7624 35.2329 32.6682 35.2328H27.1657V17.4372L30.092 13.2369L33.0322 17.4372V34.8828ZM16.2307 12.4808H28.0338L25.5276 16.0371H13.7525L16.2307 12.4808Z" clip-rule="evenodd" fill-rule="evenodd"></path>
<path fill="#322D2D" d="M20.0932 15.2955C20.3014 15.2955 20.505 15.2335 20.678 15.1175C20.851 15.0015 20.9855 14.8367 21.0646 14.644C21.1436 14.4513 21.1636 14.2394 21.1219 14.0353C21.0803 13.8313 20.9789 13.6442 20.8306 13.4979C20.6823 13.3516 20.4939 13.2527 20.2893 13.2138C20.0847 13.1749 19.8731 13.1977 19.6815 13.2793C19.4899 13.361 19.3269 13.4977 19.2132 13.6722C19.0995 13.8468 19.0403 14.0511 19.0431 14.2594C19.0467 14.5355 19.159 14.799 19.3555 14.9929C19.5521 15.1868 19.8171 15.2955 20.0932 15.2955Z" clip-rule="evenodd" fill-rule="evenodd"></path>
</svg>
