<svg xmlns="http://www.w3.org/2000/svg" fill="none" viewBox="0 0 46 45" height="45" width="46">
<path fill="#322D2D" d="M12.9271 29.0668C13.3528 29.0761 13.7761 29.0005 14.1723 28.8444C14.5685 28.6883 14.9297 28.4549 15.2347 28.1577C15.5397 27.8605 15.7824 27.5056 15.9487 27.1136C16.115 26.7215 16.2016 26.3003 16.2034 25.8745V22.9902C16.2034 22.708 16.0913 22.4374 15.8917 22.2378C15.6921 22.0382 15.4215 21.9261 15.1393 21.9261H12.003C11.7208 21.9261 11.4501 22.0382 11.2506 22.2378C11.051 22.4374 10.9389 22.708 10.9389 22.9902C10.9389 23.2724 11.051 23.5431 11.2506 23.7427C11.4501 23.9422 11.7208 24.0543 12.003 24.0543H14.0472V25.8745C14.0366 26.1557 13.9192 26.4223 13.7189 26.6201C13.5186 26.8178 13.2504 26.9317 12.9691 26.9386H9.80479C9.57128 26.9386 9.34006 26.8926 9.12432 26.8032C8.90858 26.7139 8.71256 26.5829 8.54744 26.4178C8.38232 26.2527 8.25135 26.0566 8.16198 25.8409C8.07262 25.6252 8.02663 25.3939 8.02663 25.1604V19.8399C8.02663 19.3683 8.21397 18.9161 8.54744 18.5826C8.88091 18.2491 9.33319 18.0618 9.80479 18.0618H13.8232C14.1054 18.0618 14.376 17.9497 14.5756 17.7501C14.7751 17.5506 14.8873 17.2799 14.8873 16.9977C14.8873 16.7155 14.7751 16.4448 14.5756 16.2453C14.376 16.0457 14.1054 15.9336 13.8232 15.9336H9.80479C8.76876 15.9336 7.77517 16.3452 7.04258 17.0777C6.31 17.8103 5.89844 18.8039 5.89844 19.8399V25.1604C5.89844 26.1965 6.31 27.1901 7.04258 27.9226C7.77517 28.6552 8.76876 29.0668 9.80479 29.0668H12.9271Z"></path>
<path fill="#322D2D" d="M27.4024 29.0655C27.6846 29.0655 27.9552 28.9534 28.1548 28.7538C28.3543 28.5543 28.4665 28.2836 28.4665 28.0014V16.9964C28.4696 16.7651 28.3972 16.5391 28.2604 16.3526C28.1236 16.1661 27.9298 16.0293 27.7082 15.9628C27.4867 15.8964 27.2495 15.9039 27.0326 15.9843C26.8158 16.0647 26.631 16.2135 26.5063 16.4083L23.202 21.3788L19.8837 16.4083C19.7596 16.2163 19.5762 16.07 19.3614 15.9916C19.1466 15.9133 18.9121 15.9072 18.6936 15.9743C18.4755 16.0425 18.2847 16.1783 18.1488 16.362C18.0129 16.5457 17.9389 16.7679 17.9375 16.9964V28.0014C17.9375 28.2836 18.0496 28.5543 18.2492 28.7538C18.4487 28.9534 18.7194 29.0655 19.0016 29.0655C19.2838 29.0655 19.5545 28.9534 19.754 28.7538C19.9536 28.5543 20.0657 28.2836 20.0657 28.0014V20.5247L22.3619 23.899C22.4648 24.038 22.5988 24.1509 22.7532 24.2287C22.9076 24.3066 23.0781 24.3471 23.251 24.3471C23.4239 24.3471 23.5944 24.3066 23.7488 24.2287C23.9032 24.1509 24.0372 24.038 24.1401 23.899L26.3803 20.5387V28.0154C26.387 28.287 26.496 28.5461 26.6855 28.7408C26.875 28.9355 27.131 29.0514 27.4024 29.0655Z"></path>
<path fill="#322D2D" d="M42.1469 10.556C42.0788 10.4255 41.9843 10.3106 41.8695 10.2185C41.7547 10.1264 41.6221 10.0591 41.48 10.0209C41.3378 9.98266 41.1893 9.97434 41.0438 9.99644C40.8983 10.0185 40.7589 10.0706 40.6346 10.1493C40.5102 10.228 40.4035 10.3316 40.3213 10.4537C40.239 10.5757 40.1829 10.7135 40.1566 10.8583C40.1303 11.0031 40.1343 11.1518 40.1684 11.295C40.2025 11.4382 40.266 11.5727 40.3547 11.6901C42.2876 14.7572 43.3626 18.2865 43.4679 21.9103C43.5732 25.5341 42.7049 29.1198 40.9534 32.294C39.2018 35.4681 36.6313 38.1146 33.5094 39.9576C30.3875 41.8006 26.8285 42.7728 23.2032 42.7729C18.1973 42.7783 13.3695 40.916 9.66394 37.5505L14.0043 33.2101C14.1036 33.1108 14.1824 32.9929 14.2361 32.8632C14.2898 32.7334 14.3175 32.5944 14.3175 32.454C14.3175 32.3136 14.2898 32.1745 14.2361 32.0448C14.1824 31.9151 14.1036 31.7972 14.0043 31.6979C13.905 31.5986 13.7872 31.5199 13.6574 31.4661C13.5277 31.4124 13.3887 31.3848 13.2483 31.3848C13.1078 31.3848 12.9688 31.4124 12.8391 31.4661C12.7094 31.5199 12.5915 31.5986 12.4922 31.6979L7.38173 36.8364C7.28182 36.9353 7.20252 37.0531 7.1484 37.1829C7.09427 37.3126 7.06641 37.4518 7.06641 37.5925C7.06641 37.7331 7.09427 37.8723 7.1484 38.002C7.20252 38.1318 7.28182 38.2496 7.38173 38.3485C11.2835 42.2204 16.4727 44.5225 21.9616 44.8169C27.4506 45.1112 32.8561 43.3772 37.1496 39.9448C41.4431 36.5125 44.3248 31.6214 45.2462 26.2023C46.1677 20.7833 45.0646 15.2146 42.1469 10.556Z"></path>
<path fill="#322D2D" d="M2.93025 22.4987C2.93766 17.124 5.07603 11.9716 8.8765 8.17112C12.677 4.37064 17.8294 2.23228 23.2041 2.22487C28.2099 2.21953 33.0377 4.08175 36.7433 7.44734L32.4029 11.7877C32.3036 11.887 32.2249 12.0049 32.1711 12.1346C32.1174 12.2643 32.0897 12.4034 32.0897 12.5438C32.0897 12.6842 32.1174 12.8233 32.1711 12.953C32.2249 13.0827 32.3036 13.2006 32.4029 13.2999C32.5022 13.3992 32.6201 13.4779 32.7498 13.5317C32.8795 13.5854 33.0186 13.613 33.159 13.613C33.2994 13.613 33.4384 13.5854 33.5682 13.5317C33.6979 13.4779 33.8158 13.3992 33.9151 13.2999L38.8995 8.31542C39.0206 8.2147 39.1199 8.09043 39.1915 7.95015C39.263 7.80986 39.3053 7.6565 39.3158 7.49936C39.3263 7.34223 39.3047 7.18461 39.2524 7.03607C39.2001 6.88753 39.1181 6.75117 39.0115 6.63527C35.1075 2.76797 29.9183 0.470487 24.4308 0.17982C18.9433 -0.110847 13.5404 1.62558 9.24968 5.05882C4.959 8.49206 2.07988 13.3826 1.15995 18.8002C0.240017 24.2179 1.34345 29.7847 4.26037 34.4418C4.32849 34.5723 4.42293 34.6872 4.53772 34.7793C4.65251 34.8714 4.78517 34.9387 4.9273 34.9769C5.06943 35.0151 5.21794 35.0235 5.36345 35.0014C5.50896 34.9793 5.6483 34.9272 5.77267 34.8485C5.89704 34.7698 6.00373 34.6662 6.086 34.5441C6.16827 34.4221 6.22432 34.2843 6.25062 34.1395C6.27693 33.9947 6.2729 33.846 6.23881 33.7028C6.20471 33.5596 6.14128 33.4251 6.05254 33.3077C4.01567 30.0701 2.93346 26.3237 2.93025 22.4987Z"></path>
<path fill="#322D2D" d="M36.8428 15.9336H33.3985C32.7375 15.9336 32.1036 16.1962 31.6362 16.6635C31.1688 17.1309 30.9063 17.7648 30.9062 18.4258V26.5746C30.9063 27.2355 31.1688 27.8694 31.6362 28.3368C32.1036 28.8042 32.7375 29.0668 33.3985 29.0668H36.8428C37.5038 29.0663 38.1379 28.8046 38.6069 28.3387C38.8401 28.1083 39.0247 27.8335 39.1498 27.5304C39.2749 27.2274 39.3378 26.9024 39.335 26.5746V18.4258C39.3378 18.098 39.2749 17.773 39.1498 17.4699C39.0247 17.1669 38.8401 16.8921 38.6069 16.6617C38.1379 16.1958 37.5038 15.9341 36.8428 15.9336ZM37.1928 26.5746C37.194 26.6222 37.1845 26.6696 37.1652 26.7132C37.1458 26.7567 37.117 26.7955 37.0808 26.8266C37.0513 26.861 37.0148 26.8887 36.9738 26.908C36.9327 26.9273 36.8881 26.9377 36.8428 26.9386H33.3985C33.3511 26.938 33.3043 26.9277 33.261 26.9085C33.2176 26.8892 33.1787 26.8613 33.1465 26.8266C33.1103 26.7955 33.0815 26.7567 33.0621 26.7132C33.0427 26.6696 33.0333 26.6222 33.0344 26.5746V18.4258C33.0379 18.3304 33.0774 18.2398 33.1449 18.1723C33.2124 18.1047 33.303 18.0653 33.3985 18.0618H36.8428C36.8881 18.0627 36.9327 18.0731 36.9738 18.0924C37.0148 18.1117 37.0513 18.1394 37.0808 18.1738C37.1156 18.206 37.1434 18.245 37.1627 18.2883C37.1819 18.3316 37.1922 18.3784 37.1928 18.4258V26.5746Z"></path>
</svg>
