<svg xmlns="http://www.w3.org/2000/svg" fill="none" viewBox="0 0 45 45" height="45" width="45">
<circle stroke-width="2.1602" stroke="#322D2D" r="21.2419" cy="22.4998" cx="22.5759"></circle>
<g clip-path="url(#clip0_625_1881)">
<path fill="#322D2D" d="M35.0903 27.6396L32.1792 24.7285C35.5183 17.7219 30.386 9.53906 22.5745 9.53906C14.7766 9.53906 9.62408 17.7078 12.9698 24.7285L10.0587 27.6396C9.24856 28.4498 9.59304 29.8325 10.6916 30.167L13.9252 31.1492L14.9074 34.3828C15.2406 35.477 16.6204 35.8286 17.4348 35.0157L21.6845 30.7659C22.2687 30.8144 22.8604 30.816 23.4646 30.7659L27.7143 35.0157C28.5258 35.8271 29.9078 35.4792 30.2417 34.3828L31.2239 31.1492L34.4575 30.167C35.5578 29.832 35.8991 28.4485 35.0903 27.6396ZM16.3609 33.9414L15.3783 30.7077C15.2309 30.2217 14.8527 29.8435 14.3668 29.6957L11.1331 28.7135L13.7506 26.096C15.1723 28.2062 17.33 29.7813 19.8529 30.4496L16.3609 33.9414ZM14.8481 24.9984C11.0324 18.9219 15.4718 11.0579 22.5745 11.0579C29.7346 11.0579 34.0824 18.9765 30.3009 24.9983C26.7205 30.7084 18.428 30.7076 14.8481 24.9984ZM30.7824 29.6957C30.2963 29.8435 29.9181 30.2217 29.7703 30.7077L28.7882 33.9413L25.2964 30.4495C27.8192 29.7812 29.9769 28.2061 31.3986 26.0959L34.0161 28.7134L30.7824 29.6957Z"></path>
<path fill="#322D2D" d="M22.5724 12.5762C17.4902 12.5762 13.816 17.5093 15.3082 22.3874C16.5796 26.5535 21.0897 28.7671 25.124 27.3237C28.0624 26.272 30.1666 23.4609 30.1666 20.1704C30.1666 15.9829 26.7598 12.5762 22.5724 12.5762ZM18.4766 24.653C14.3757 20.91 17.0735 14.095 22.5724 14.095C26.3148 14.095 29.1635 17.4624 28.5723 21.1232C27.8285 25.8683 22.0529 27.9256 18.4766 24.653Z"></path>
<path fill="#322D2D" d="M24.8788 18.1165L21.5314 20.6012L20.3718 19.3656C20.0847 19.0597 19.6042 19.0444 19.2983 19.3315C18.9925 19.6185 18.9772 20.0992 19.2643 20.405L20.8869 22.1339C21.151 22.4154 21.5839 22.4537 21.8933 22.224L25.7841 19.3361C26.1209 19.0861 26.1912 18.6104 25.9412 18.2736C25.6913 17.9369 25.2156 17.8665 24.8788 18.1165Z"></path>
<circle fill="#F9F9F9" r="7.92072" cy="20.3406" cx="22.577"></circle>
<path fill="#322D2D" d="M16.6153 19.9611C16.6153 20.7286 16.8483 21.5577 17.8076 21.5577C18.7327 21.5577 18.9451 20.9068 18.9588 20.5436H17.8144V19.7213H19.8633V22.3184H19.0068V21.8661C18.6984 22.2087 18.2667 22.3937 17.7391 22.3937C16.1356 22.3937 15.6148 21.174 15.6148 19.9337C15.6148 18.7894 16.1767 17.4463 17.8213 17.4463C19.2603 17.4463 19.7057 18.4536 19.7126 19.0635H18.7258C18.7121 18.7209 18.4654 18.2823 17.7939 18.2823C17.0607 18.2823 16.6153 18.8648 16.6153 19.9611ZM23.0708 21.0096L24.0369 17.5217H25.5239V22.3184H24.5783V18.7483L23.5641 22.3184H22.5774L21.5632 18.7483V22.3184H20.6176V17.5217H22.1046L23.0708 21.0096ZM30.0118 19.0635C30.0118 19.4952 29.8748 19.8721 29.6212 20.153C29.3334 20.4751 28.8743 20.6738 28.3124 20.6738H27.2914V22.3184H26.3458V17.5217H28.47C29.3129 17.5217 30.0118 18.0973 30.0118 19.0635ZM29.0251 19.0909C29.0251 18.6797 28.8126 18.3371 28.1959 18.3371H27.2914V19.8584H28.1754C28.8195 19.8584 29.0251 19.4815 29.0251 19.0909Z"></path>
</g>
<defs>
<clipPath id="clip0_625_1881">
<rect transform="translate(9.61719 9.53906)" fill="white" height="25.9223" width="25.9223"></rect>
</clipPath>
</defs>
</svg>
