<svg xmlns="http://www.w3.org/2000/svg" fill="none" viewBox="0 0 44 45" height="45" width="44">
<g clip-path="url(#clip0_92_648)">
<path fill="url(#paint0_linear_92_648)" d="M26.9049 37.3899C26.7425 36.776 26.5877 36.1891 26.4079 35.51C26.0581 35.6671 25.7021 35.8119 25.3594 35.9842C24.9343 36.1977 24.5651 36.1541 24.3104 35.775C23.0665 33.9239 23.0878 31.6979 25.0976 30.1777C25.5776 29.8147 25.9393 29.8833 26.3085 30.3552C26.5589 30.6756 26.8429 30.97 27.1297 31.2966C27.5775 30.6699 27.9808 30.1053 28.4045 29.5122C28.2203 29.4299 28.0286 29.3456 27.8388 29.2585C27.4279 29.0692 27.2864 28.7705 27.3962 28.3304C27.9018 26.3075 30.1298 25.0802 32.0952 25.7423C32.5496 25.8957 32.7352 26.2374 32.6149 26.7112C32.5629 26.9166 32.5004 27.1192 32.437 27.3421H34.7124C34.6186 26.839 34.5732 26.359 34.435 25.9075C34.2404 25.2719 34.3427 24.9756 34.9566 24.7167C37.0327 23.842 39.1472 24.5406 40.1999 26.449C40.5379 27.0614 40.4163 27.4363 39.772 27.7283C39.2031 27.9858 38.724 28.3446 38.3936 28.8747C38.7254 29.1757 39.0483 29.4677 39.3867 29.7744C39.4317 29.648 39.5107 29.4445 39.5765 29.2367C39.7209 28.7819 39.9628 28.5855 40.4262 28.6697C42.446 29.0351 44.0497 30.5956 43.6246 32.9948C43.548 33.4279 43.1958 33.6205 42.739 33.5812C42.2869 33.5424 41.8292 33.5453 41.3753 33.5604C41.1343 33.5684 41.0013 33.6977 41.042 33.985C41.0823 34.2699 41.1059 34.5719 41.0562 34.8521C40.9753 35.3093 41.1812 35.5488 41.5746 35.6628C42.1113 35.8181 42.6495 35.9875 43.1996 36.0713C43.7397 36.1532 43.9896 36.3638 43.9976 36.9204C44.0322 39.2377 42.5766 40.8673 40.2629 41.1025C39.7015 41.1593 39.3597 40.8664 39.3266 40.3027C39.3124 40.0636 39.2925 39.8251 39.2745 39.5766C38.4883 40.1682 37.7432 40.7286 36.8997 41.3633C37.0952 41.7477 37.2921 42.2214 37.5638 42.6474C37.899 43.1737 37.8786 43.5188 37.3915 43.9097C35.6184 45.3325 33.3501 45.2146 31.8022 43.6196C31.3785 43.1832 31.3946 42.7601 31.8453 42.3639C32.0138 42.2158 32.1747 42.0591 32.3555 41.8906C31.6043 41.618 30.899 41.3624 30.1616 41.095C30.1048 41.2758 30.038 41.476 29.9788 41.6786C29.843 42.1438 29.568 42.3284 29.0965 42.2669C27.0611 42.0009 25.7168 40.3935 25.8318 38.3635C25.8758 37.5882 26.103 37.3771 26.9044 37.3904L26.9049 37.3899ZM42.437 37.6308C41.6124 37.2352 40.8499 36.8665 40.0844 36.5025C39.5789 36.262 39.4554 35.8749 39.5268 35.3334C39.5898 34.8554 39.5874 34.357 39.5306 33.8775C39.4184 32.9285 39.4899 32.7454 40.3566 32.3554C40.5639 32.2621 40.7831 32.1831 41.0056 32.14C41.3881 32.0662 41.7767 32.0259 42.161 31.9715C42.0877 31.1489 41.5504 30.5133 40.8035 30.3301C40.536 30.7215 40.2908 31.1252 40.0011 31.4939C39.5486 32.0695 39.0809 32.0141 38.6227 31.439C38.2076 30.9179 37.7541 30.4162 37.2571 29.9742C36.6957 29.4748 36.6034 29.2538 36.9002 28.5609C37.242 27.7624 37.8308 27.1807 38.5366 26.7064C37.9657 25.9146 36.797 25.5937 36.0283 25.9965C36.0283 26.7296 36.0595 27.4604 36.0183 28.187C35.9847 28.7786 35.6231 29.0559 35.0584 28.9338C34.0194 28.7085 33.004 28.754 31.9821 29.0337C31.4202 29.1875 31.0462 28.9154 30.9918 28.3356C30.9539 27.9304 30.9847 27.5191 30.9847 27.1144C30.1625 27.0685 29.5206 27.4387 29.079 28.1903C29.364 28.4141 29.6626 28.6257 29.9339 28.8671C30.4352 29.3134 30.4333 29.7356 29.9306 30.1725C29.2144 30.7944 28.679 31.5413 28.3117 32.4155C28.0599 33.0152 27.6996 33.1837 27.1113 32.8859C26.547 32.601 26.0316 32.2191 25.4787 31.8698C24.851 32.4869 24.7294 33.5552 25.2221 34.312C25.8512 34.2013 26.459 34.0626 27.0753 33.9963C27.534 33.9466 27.8417 34.2363 27.8582 34.6973C27.8975 35.7892 28.1938 36.794 28.7481 37.7364C29.0667 38.2779 28.8196 38.7762 28.1971 38.9002C27.9179 38.9556 27.6286 38.9608 27.3456 38.9883C27.3745 39.7815 27.9216 40.4262 28.7424 40.6539C28.8835 40.4039 29.0156 40.1465 29.1699 39.9022C29.6016 39.2183 29.8988 39.1554 30.5956 39.5922C31.4666 40.1389 32.4152 40.4385 33.4414 40.4962C34.1775 40.5374 34.4861 41.0055 34.1756 41.6847C33.9626 42.1504 33.6663 42.5778 33.4064 43.0232C34.2201 43.5675 35.1848 43.5713 35.9492 43.0582C35.7646 42.398 35.5625 41.7623 35.4134 41.1144C35.2828 40.5474 35.4314 40.2799 35.9535 40.0584C37.0824 39.5794 37.978 38.8297 38.6601 37.8121C39.0899 37.1708 39.6802 37.1571 40.0698 37.8173C40.3737 38.3323 40.5763 38.9069 40.8286 39.4654C41.674 39.3002 42.3471 38.5211 42.437 37.6294V37.6308Z"></path>
<path fill="url(#paint1_linear_92_648)" d="M30.0663 12.3028C28.3173 11.7481 26.6283 11.2753 24.9853 10.6765C22.5286 9.78197 20.2144 8.57599 17.9968 7.19156C17.7094 7.01218 17.513 7.00839 17.2252 7.18494C13.8937 9.2301 10.3843 10.8744 6.58423 11.8522C6.11372 11.9734 5.63942 12.0794 5.13909 12.1996C5.13909 12.3781 5.13909 12.5442 5.13909 12.7108C5.13909 17.0018 5.15897 21.2933 5.13246 25.5843C5.11258 28.8666 6.19561 31.6786 8.54533 33.9864C8.81136 34.2477 9.0433 34.5577 8.83077 34.9093C8.70296 35.1204 8.41327 35.288 8.16476 35.3524C8.00903 35.3926 7.752 35.2492 7.61188 35.1143C5.1282 32.7118 3.7356 29.7891 3.69347 26.324C3.63383 21.4532 3.67359 16.5815 3.67406 11.7097C3.67406 11.174 3.88092 10.9174 4.40397 10.8218C8.82272 10.0158 12.8311 8.19213 16.6042 5.82607C17.3573 5.35371 17.8836 5.37359 18.6187 5.83649C22.1253 8.04304 25.8558 9.75026 29.9248 10.6476C30.2372 10.7168 30.5539 10.7669 30.8667 10.836C31.2932 10.9297 31.5323 11.1886 31.5323 11.6383C31.5323 15.5322 31.5351 19.4265 31.529 23.3204C31.528 23.8169 31.2137 24.1213 30.7707 24.1061C30.3361 24.0914 30.0687 23.7843 30.0682 23.2632C30.0649 19.7659 30.0663 16.2691 30.0663 12.7718C30.0663 12.5896 30.0663 12.4074 30.0663 12.3028Z"></path>
<path fill="url(#paint2_linear_92_648)" d="M20.5346 25.8342C20.5346 27.4856 20.535 29.0717 20.5346 30.6582C20.5346 31.4742 20.3135 31.699 19.5131 31.6995C18.2611 31.7004 17.0095 31.6999 15.7575 31.6995C14.8775 31.6995 14.6702 31.4959 14.6697 30.6331C14.6693 29.198 14.6697 27.763 14.6697 26.3279V25.8342C14.2371 25.8342 13.8447 25.8342 13.4518 25.8342C12.1846 25.8342 10.9175 25.839 9.6503 25.8319C9.08228 25.8286 8.80916 25.5545 8.80632 24.9842C8.79969 23.6102 8.80111 22.2362 8.80537 20.8622C8.80726 20.2346 9.06997 19.9719 9.69764 19.9705C11.3307 19.9662 12.9633 19.969 14.6693 19.969C14.6693 19.793 14.6693 19.6335 14.6693 19.4735C14.6693 17.9925 14.6674 16.5115 14.6702 15.0306C14.6716 14.3665 14.9244 14.1067 15.5748 14.1048C16.9333 14.101 18.2923 14.1 19.6508 14.1048C20.27 14.1071 20.5313 14.3755 20.5331 15.0078C20.5369 16.6398 20.5346 18.2718 20.5346 19.9686C20.7192 19.9686 20.8801 19.9686 21.0411 19.9686C22.5217 19.9686 24.0028 19.9662 25.4835 19.9695C26.1391 19.9709 26.397 20.2294 26.3989 20.8858C26.4027 22.2295 26.4027 23.5728 26.3989 24.9165C26.397 25.5725 26.1386 25.8314 25.4835 25.8333C24.018 25.8366 22.5525 25.8342 21.0865 25.8342H20.5346ZM24.8989 24.3679V21.4353C23.2308 21.4353 21.5977 21.4382 19.9642 21.4339C19.3351 21.4325 19.0719 21.1698 19.0695 20.5427C19.0648 19.3514 19.0681 18.1601 19.0681 16.9687C19.0681 16.5153 19.0681 16.0619 19.0681 15.6009H16.1352C16.1352 17.2026 16.1352 18.7739 16.1352 20.3448C16.1352 21.2389 15.935 21.4353 15.0243 21.4353C13.6037 21.4353 12.1832 21.4353 10.7632 21.4353H10.2969V24.3679C10.4886 24.3679 10.6533 24.3679 10.8185 24.3679C12.2694 24.3679 13.7207 24.3665 15.1715 24.3684C15.8891 24.3694 16.1338 24.6131 16.1348 25.3297C16.1371 26.796 16.1352 28.2623 16.1352 29.7286C16.1352 29.8895 16.1352 30.0505 16.1352 30.21H19.0681V29.7419C19.0681 28.3063 19.0681 26.8703 19.0681 25.4348C19.0681 24.57 19.2745 24.3679 20.1554 24.3679C21.7269 24.3679 23.298 24.3679 24.8989 24.3679Z"></path>
<path fill="url(#paint3_linear_92_648)" d="M1.47311 9.04493C1.47311 10.5808 1.47311 12.1366 1.47311 13.6928C1.47311 13.8457 1.4821 13.9995 1.466 14.1505C1.42293 14.5547 1.11762 14.8354 0.737989 14.8344C0.357414 14.8335 0.0440543 14.5523 0.0161265 14.1467C-0.00801451 13.7969 0.00713277 13.4443 0.00713277 13.0931C0.00713277 11.5198 0.0038193 9.94658 0.00855282 8.37378C0.0104462 7.81338 0.26653 7.51709 0.789584 7.50999C3.99276 7.46787 6.98719 6.56764 9.88268 5.28593C12.3735 4.1836 14.7208 2.82331 16.9309 1.22827C17.542 0.787148 17.6807 0.795668 18.3093 1.24247C21.6635 3.62841 25.251 5.5524 29.222 6.70537C30.8849 7.18815 32.5804 7.47828 34.3162 7.50526C34.9476 7.5152 35.2014 7.77221 35.2014 8.40502C35.2037 13.0633 35.2033 17.7216 35.2014 22.3803C35.2014 22.9672 34.9363 23.2815 34.4629 23.2787C33.9934 23.2758 33.733 22.9592 33.733 22.3699C33.7316 18.0936 33.7321 13.8168 33.7321 9.54048C33.7321 9.36015 33.7321 9.18029 33.7321 9.06386C32.3461 8.82153 30.9956 8.6606 29.683 8.34207C25.4309 7.3112 21.6128 5.33089 18.0414 2.8484C17.7152 2.62168 17.5136 2.60607 17.178 2.83941C13.4783 5.4123 9.51678 7.43947 5.09425 8.44761C3.92365 8.71456 2.72086 8.84283 1.47263 9.04445L1.47311 9.04493Z"></path>
<path fill="url(#paint4_linear_92_648)" d="M0.00617488 22.0128C0.00617488 20.4244 0.00475483 18.836 0.00664824 17.2476C0.00759494 16.6436 0.291133 16.2948 0.759752 16.309C1.21133 16.3227 1.4712 16.6583 1.47167 17.2438C1.47357 19.8858 1.52753 22.5297 1.46126 25.1698C1.31547 30.9578 3.77027 35.3719 8.42522 38.6685C11.1972 40.6313 14.265 42.0185 17.3986 43.2752C17.5538 43.3377 17.7914 43.2974 17.9538 43.2236C19.8685 42.3541 21.7723 41.4601 23.6913 40.6001C23.9275 40.494 24.2716 40.4576 24.497 40.5522C24.6797 40.6289 24.878 40.9636 24.8558 41.1604C24.8288 41.4042 24.6347 41.7213 24.4207 41.8363C23.3746 42.4 22.3086 42.9311 21.2285 43.4271C20.1899 43.9037 19.1306 44.3373 18.0674 44.7571C17.8326 44.8499 17.5079 44.8953 17.284 44.8087C14.2508 43.6349 11.271 42.3447 8.5464 40.5385C5.93113 38.8053 3.67655 36.7175 2.09508 33.9643C0.727564 31.5812 0.074811 29.0055 0.0151686 26.2735C-0.0155993 24.8541 0.0099617 23.4327 0.0099617 22.0128H0.00664824H0.00617488Z"></path>
<path fill="url(#paint5_linear_92_648)" d="M10.3989 35.7109C10.6635 35.8364 10.8386 35.8941 10.9853 35.993C12.9412 37.3107 15.0529 38.3279 17.2156 39.2508C17.4878 39.3668 17.7112 39.3914 17.9862 39.2555C19.4612 38.5276 20.9409 37.8091 22.4296 37.1096C22.6606 37.0012 22.9825 36.9084 23.1945 36.9884C23.4 37.0655 23.5917 37.3547 23.6565 37.5876C23.7535 37.9383 23.5173 38.1953 23.2068 38.3506C21.8989 39.0047 20.5878 39.6531 19.278 40.3025C19.2373 40.3228 19.1871 40.3266 19.1502 40.3512C18.0951 41.064 17.0977 40.878 15.9981 40.3413C14.0517 39.3918 12.0859 38.4897 10.2829 37.2766C10.157 37.1919 9.97804 37.1157 9.93402 36.995C9.84692 36.7565 9.74089 36.4521 9.82184 36.2453C9.90846 36.0238 10.2015 35.8827 10.3993 35.7109H10.3989Z"></path>
<path fill="url(#paint6_linear_92_648)" d="M37.239 34.6266C37.7668 34.6389 38.1142 34.362 38.1275 33.918C38.1403 33.4925 37.8368 33.2067 37.3256 33.1631C36.1105 33.0599 35.3006 32.2534 35.2007 31.0465C35.1567 30.5192 34.8457 30.2012 34.4088 30.2371C33.9833 30.2722 33.7272 30.6058 33.7367 31.1137C33.7698 32.9568 35.391 34.5826 37.239 34.6261V34.6266ZM33.7272 37.3954C33.6784 35.5424 32.0525 33.9294 30.2059 33.9015C29.7013 33.8939 29.3667 34.1566 29.3378 34.583C29.3089 35.0071 29.619 35.32 30.1113 35.3645C31.3756 35.4785 32.1566 36.2529 32.2641 37.5C32.3076 38.0036 32.6039 38.3113 33.0276 38.2933C33.4692 38.2744 33.7404 37.9255 33.7267 37.3954H33.7272Z"></path>
<path fill="url(#paint7_linear_92_648)" d="M37.2389 34.6261C35.3909 34.5826 33.7697 32.9568 33.7366 31.1137C33.7276 30.6058 33.9832 30.2722 34.4087 30.2371C34.8456 30.2012 35.1566 30.5192 35.2006 31.0465C35.301 32.2534 36.1104 33.0599 37.3255 33.1631C37.8367 33.2067 38.1402 33.4921 38.1274 33.918C38.1141 34.362 37.7667 34.6389 37.2389 34.6266V34.6261Z"></path>
<path fill="url(#paint8_linear_92_648)" d="M33.7267 37.4004C33.7404 37.9305 33.4692 38.2793 33.0276 38.2982C32.6039 38.3167 32.3071 38.0086 32.2641 37.505C32.1561 36.2578 31.3756 35.4835 30.1113 35.3694C29.619 35.3249 29.3089 35.0121 29.3378 34.588C29.3667 34.1615 29.7013 33.8988 30.2059 33.9064C32.0525 33.9339 33.6784 35.5469 33.7272 37.4004H33.7267Z"></path>
</g>
<defs>
<linearGradient gradientUnits="userSpaceOnUse" y2="34.6226" x2="43.9982" y1="34.6226" x1="23.4648" id="paint0_linear_92_648">
<stop stop-color="#9E6718"></stop>
<stop stop-color="#FFB545" offset="1"></stop>
</linearGradient>
<linearGradient gradientUnits="userSpaceOnUse" y2="20.4199" x2="31.5329" y1="20.4199" x1="3.66064" id="paint1_linear_92_648">
<stop stop-color="#9E6718"></stop>
<stop stop-color="#FFB545" offset="1"></stop>
</linearGradient>
<linearGradient gradientUnits="userSpaceOnUse" y2="22.9008" x2="26.4018" y1="22.9008" x1="8.80176" id="paint2_linear_92_648">
<stop stop-color="#9E6718"></stop>
<stop stop-color="#FFB545" offset="1"></stop>
</linearGradient>
<linearGradient gradientUnits="userSpaceOnUse" y2="12.0905" x2="35.203" y1="12.0905" x1="0.00244141" id="paint3_linear_92_648">
<stop stop-color="#9E6718"></stop>
<stop stop-color="#FFB545" offset="1"></stop>
</linearGradient>
<linearGradient gradientUnits="userSpaceOnUse" y2="30.5817" x2="24.8575" y1="30.5817" x1="0" id="paint4_linear_92_648">
<stop stop-color="#9E6718"></stop>
<stop stop-color="#FFB545" offset="1"></stop>
</linearGradient>
<linearGradient gradientUnits="userSpaceOnUse" y2="38.2643" x2="23.6786" y1="38.2643" x1="9.79297" id="paint5_linear_92_648">
<stop stop-color="#9E6718"></stop>
<stop stop-color="#FFB545" offset="1"></stop>
</linearGradient>
<linearGradient gradientUnits="userSpaceOnUse" y2="34.2642" x2="38.1279" y1="34.2642" x1="29.3359" id="paint6_linear_92_648">
<stop stop-color="#9E6718"></stop>
<stop stop-color="#FFB545" offset="1"></stop>
</linearGradient>
<linearGradient gradientUnits="userSpaceOnUse" y2="32.4307" x2="38.1278" y1="32.4307" x1="33.7363" id="paint7_linear_92_648">
<stop stop-color="#9E6718"></stop>
<stop stop-color="#FFB545" offset="1"></stop>
</linearGradient>
<linearGradient gradientUnits="userSpaceOnUse" y2="36.1026" x2="33.7272" y1="36.1026" x1="29.3359" id="paint8_linear_92_648">
<stop stop-color="#9E6718"></stop>
<stop stop-color="#FFB545" offset="1"></stop>
</linearGradient>
<clipPath id="clip0_92_648">
<rect transform="translate(0 0.902344)" fill="white" height="44" width="44"></rect>
</clipPath>
</defs>
</svg>
