<svg xmlns="http://www.w3.org/2000/svg" fill="none" viewBox="0 0 46 45" height="45" width="46">
<circle stroke-width="2.16" stroke="#322D2D" r="21.242" cy="22.4998" cx="22.7087"></circle>
<g clip-path="url(#clip0_697_226)">
<path fill="#322D2D" d="M31.7836 10C31.4086 10.0268 31.0604 10.2232 30.9265 10.5804C30.3015 12.2501 27.7746 13.3483 25.1049 14.5001C20.0333 16.6966 13.1135 19.6878 15.0689 29.2059C13.7385 30.6613 12.6581 32.5006 12.1313 35.0453C12.0331 35.5275 12.3456 36.0007 12.8278 36.0989C12.8903 36.1078 12.9528 36.1168 13.0064 36.1168C13.4171 36.1168 13.7921 35.831 13.8814 35.4025C14.31 33.3488 15.1225 31.8399 16.1761 30.6166C17.2922 31.3309 19.5958 32.5452 22.4709 32.5452C24.5245 32.5452 26.8728 31.9291 29.2836 30.0809C36.9891 24.17 32.7837 11.1607 32.6051 10.6072C32.4979 10.25 32.1676 10 31.7836 10ZM28.2121 28.6612C23.5334 32.2506 19.2744 30.4291 17.4886 29.3398C18.6047 28.3844 19.8726 27.5987 21.1762 26.804C23.7745 25.2058 26.4621 23.5539 27.6942 20.3574C27.8728 19.8931 27.6407 19.3842 27.1853 19.2056C26.721 19.027 26.2121 19.2592 26.0335 19.7145C25.0156 22.3485 22.6941 23.7682 20.2476 25.2772C19.0601 26.0094 17.8101 26.7772 16.6493 27.7237C15.6939 20.5271 20.828 18.2949 25.8281 16.1341C27.9978 15.1966 30.0782 14.2948 31.4086 12.9911C32.2212 16.6162 33.3372 24.7236 28.2121 28.6612Z"></path>
</g>
<defs>
<clipPath id="clip0_697_226">
<rect transform="translate(9.03125 9.53906)" fill="white" height="27.3625" width="27.3625"></rect>
</clipPath>
</defs>
</svg>
