<svg width="106" height="53" viewBox="0 0 106 53" fill="none" xmlns="http://www.w3.org/2000/svg">
<path d="M18.664 1.46945V51.2935H8.512V15.1495H0.88V6.58145H4.912C8.008 6.58145 9.88 5.86145 10.096 1.46945H18.664ZM44.4889 52.0855C36.4249 52.0855 25.8409 47.6935 25.8409 26.3815C25.8409 5.06946 36.4249 0.605453 44.4889 0.605453C52.5529 0.605453 63.1369 5.06946 63.1369 26.3815C63.1369 47.6935 52.5529 52.0855 44.4889 52.0855ZM44.4889 8.88545C40.3129 8.88545 35.9209 11.6215 35.9209 26.3815C35.9209 41.2135 40.3129 43.8055 44.4889 43.8055C48.6649 43.8055 53.0569 41.2135 53.0569 26.3815C53.0569 11.6215 48.6649 8.88545 44.4889 8.88545ZM78.0882 11.8375L86.2242 24.1495L93.9282 11.8375H104.872L91.6962 31.4935L105.304 51.2935H94.0722L85.5042 38.4775L77.2962 51.2935H66.3522L80.1762 30.9895L67.1442 11.8375H78.0882Z" fill="url(#paint0_linear_5_68)"/>
<defs>
<linearGradient id="paint0_linear_5_68" x1="3.83991" y1="-46.3941" x2="125.025" y2="-29.7854" gradientUnits="userSpaceOnUse">
<stop stop-color="#CAA648"/>
<stop offset="0.0994764" stop-color="#CAA648"/>
<stop offset="0.24" stop-color="#D5B147"/>
<stop offset="0.44" stop-color="#E4C267"/>
<stop offset="0.74" stop-color="#E2C065"/>
<stop offset="0.85" stop-color="#DBB95E"/>
<stop offset="0.92" stop-color="#D0AE52"/>
<stop offset="0.98" stop-color="#C09F41"/>
<stop offset="1" stop-color="#BB9A3C"/>
</linearGradient>
</defs>
</svg>
