<svg width="38" height="53" viewBox="0 0 38 53" fill="none" xmlns="http://www.w3.org/2000/svg">
<path d="M17.3 52.0855C3.548 52.0855 1.028 41.9335 0.884 38.4775H10.46C10.748 40.7815 12.548 44.0215 17.876 44.0215C25.148 44.0215 27.884 37.3255 27.956 29.8375C26.012 32.2135 21.836 34.7335 16.148 34.7335C8.3 34.7335 0.38 29.6215 0.38 18.3175C0.38 7.87745 7.58 0.605453 18.524 0.605453C29.396 0.605453 37.604 8.95746 37.604 24.2215C37.604 36.8935 34.076 52.0855 17.3 52.0855ZM26.66 17.8135C26.66 12.4855 23.492 8.88545 18.38 8.88545C13.196 8.88545 10.1 12.5575 10.1 17.8135C10.1 23.0695 13.124 26.7415 18.308 26.7415C23.42 26.7415 26.66 23.1415 26.66 17.8135Z" fill="url(#paint0_linear_5_71)"/>
<defs>
<linearGradient id="paint0_linear_5_71" x1="0.419955" y1="-46.3941" x2="61.8622" y2="-42.1837" gradientUnits="userSpaceOnUse">
<stop stop-color="#CAA648"/>
<stop offset="0.0994764" stop-color="#CAA648"/>
<stop offset="0.24" stop-color="#D5B147"/>
<stop offset="0.44" stop-color="#E4C267"/>
<stop offset="0.74" stop-color="#E2C065"/>
<stop offset="0.85" stop-color="#DBB95E"/>
<stop offset="0.92" stop-color="#D0AE52"/>
<stop offset="0.98" stop-color="#C09F41"/>
<stop offset="1" stop-color="#BB9A3C"/>
</linearGradient>
</defs>
</svg>
