<svg xmlns="http://www.w3.org/2000/svg" fill="none" viewBox="0 0 2280 340" height="340" width="2280">
<path fill="black" d="M1083.48 92.0901C1083.48 137.925 1078.9 280.009 1078.9 280.009C1078.9 307.505 1088.06 319.722 1114.03 319.722V331.94H1011.68V319.722C1037.64 319.722 1051.39 307.505 1051.39 280.009L1060.56 47.7854C1052.92 29.4462 1045.28 23.3374 1025.43 21.8199V11.1328H1103.33L1185.84 228.078L1269.87 11.1328H1340.14V21.8199C1320.28 21.8199 1309.59 30.9895 1309.59 52.3766L1318.76 276.961C1318.76 310.579 1324.87 319.735 1352.38 319.735V331.953H1234.74V319.735C1257.65 319.735 1268.36 312.096 1266.82 276.961C1266.82 276.961 1262.23 119.599 1260.71 92.1031L1204.2 247.935C1195.71 269.888 1188.57 292.337 1182.8 315.157L1164.49 316.688C1159.9 299.879 1147.68 269.335 1147.68 269.335C1147.68 269.335 1100.27 136.395 1083.48 92.0901ZM987.229 333.47C981.121 331.94 975.012 331.94 968.89 331.94C956.672 331.94 935.272 338.049 909.307 338.049C809.997 338.049 736.666 278.466 736.666 168.469C736.666 75.2813 805.419 3.48068 910.824 3.48068C935.259 3.48068 962.768 8.07194 985.686 17.2286C990.264 12.6373 991.795 9.58939 996.373 5.01106H1005.54C1004.01 21.8199 997.903 76.8117 997.903 76.8117H988.734C982.625 44.7375 965.816 23.3374 912.342 23.3374C848.18 23.3374 790.128 73.7508 790.128 166.952C790.128 272.37 849.711 318.192 915.403 318.192C958.19 318.192 984.155 293.757 1000.96 263.2L1011.66 267.791L987.229 333.47ZM698.47 70.703H687.783C686.253 41.6766 677.083 32.507 654.166 32.507H609.861V272.37C609.861 312.083 617.5 319.722 643.479 319.722V331.94H528.891V319.722C554.869 319.722 562.508 312.083 562.508 270.826V32.507H518.204C489.177 32.507 484.586 40.1462 476.947 70.703H466.26L473.899 1.9502L481.538 3.48068C484.586 11.1199 490.708 11.1198 509.034 11.1198H657.227C684.735 11.1198 690.844 11.1198 696.953 1.9502H706.123L698.47 70.703Z" clip-rule="evenodd" fill-rule="evenodd"></path>
<path fill="black" d="M374.589 339.579C353.202 339.579 336.393 336.531 324.176 331.94C311.958 328.892 302.789 324.301 298.21 321.253C292.102 327.362 287.51 335.001 287.51 335.001L278.341 331.953L285.98 260.152L296.68 261.683C302.789 295.287 325.706 319.735 373.072 319.735C409.737 319.735 434.185 289.192 434.185 255.574C434.185 228.078 423.485 214.317 386.82 186.821C374.602 179.182 363.902 173.073 354.733 165.434C321.128 144.06 299.728 119.612 299.728 79.8857C299.728 34.0505 337.924 3.49375 388.337 3.49375C417.364 3.49375 435.703 12.6634 441.812 15.7113L452.499 3.49375L460.138 5.02413L452.499 70.716L441.812 69.1856C441.812 38.6418 423.472 24.8809 392.916 24.8809C363.889 24.8809 342.502 40.1593 342.502 69.1856C342.502 95.1641 362.359 111.96 385.276 127.251C397.494 134.89 406.664 140.999 415.82 147.108C469.295 185.291 481.512 209.739 481.512 246.404C481.538 299.866 440.281 339.579 374.589 339.579ZM200.431 70.7031H188.214C188.214 43.1942 175.996 32.5071 151.548 32.5071H82.7956V153.204H127.1C150.018 153.204 154.609 140.986 157.657 121.117H168.344V206.678H157.657C154.609 183.761 150.018 174.591 125.57 174.591H82.7956V276.961C82.7956 315.144 91.9652 319.735 116.413 319.735V331.953H0.294922V319.735C29.3213 319.735 33.8996 312.096 33.8996 276.961V52.3638C33.8996 30.9767 24.73 21.8071 0.294922 21.8071V11.1199H159.175C186.67 11.1199 192.779 9.58955 197.37 0.419922H208.071L200.431 70.7031ZM1848.89 89.0294V272.357C1848.89 312.07 1858.03 319.71 1882.48 319.71V331.927H1702.23V319.71C1715.99 319.71 1728.19 315.118 1728.19 305.962C1728.19 299.84 1726.67 289.153 1723.6 278.453L1709.84 234.148H1609.03C1607.48 240.27 1589.17 290.67 1589.17 304.431C1589.17 316.649 1602.93 319.71 1612.07 319.71V331.927H1528.04V319.71C1543.32 319.71 1555.55 318.179 1566.24 286.105L1644.16 37.0724C1639.57 26.3853 1633.47 23.3245 1622.79 21.794V11.107H1691.54L1774.01 272.357C1781.67 299.853 1789.29 313.614 1801.52 319.71C1819.86 313.601 1824.45 307.492 1824.45 272.357V52.3638C1810.69 34.0245 1809.15 21.8071 1783.18 21.8071V11.1199H1861.11L1989.44 229.583V63.0639C1989.44 29.4463 1981.82 21.8071 1955.82 21.8071V11.1199H2126.93V21.8071C2116.25 21.8071 2107.08 26.3983 2107.08 37.0854C2107.08 44.7246 2110.14 52.3638 2113.19 61.5334L2162.08 166.952L2209.45 64.5943C2217.07 50.8463 2218.62 43.2072 2218.62 35.568C2218.62 26.3983 2212.48 21.8071 2198.76 21.8071V11.1199H2279.72V21.8071C2259.86 21.8071 2247.62 40.1463 2238.47 61.5205L2175.83 189.856V273.887C2175.83 310.566 2185 319.723 2209.45 319.723V331.94H2093.33V319.723C2117.78 319.723 2126.95 310.566 2126.95 273.887V202.087L2059.71 60.003C2047.51 32.5071 2042.92 26.3984 2035.26 21.8071C2019.99 27.9158 2015.41 38.6159 2015.41 63.0639V298.335C2015.41 298.335 2016.95 316.675 2018.47 338.049L1998.61 339.579L1848.89 89.0294ZM1657.92 73.751L1615.13 212.787H1703.74L1657.92 73.751Z" clip-rule="evenodd" fill-rule="evenodd"></path>
<path fill="black" d="M1468.46 212.787H1445.56V278.466C1445.56 312.083 1454.7 319.722 1480.69 319.722V331.94H1363.05V319.722C1387.5 319.722 1396.67 310.566 1396.67 276.948V61.5333C1396.67 27.9287 1387.5 21.82 1363.05 21.82V11.1328H1451.66C1537.21 11.1328 1587.61 37.0984 1587.61 107.369C1587.63 180.7 1526.53 212.787 1468.46 212.787ZM1453.18 32.507H1445.56V189.856H1459.29C1509.73 189.856 1535.7 166.939 1535.7 108.886C1535.7 50.8333 1512.76 32.507 1453.18 32.507ZM935.273 270.826C877.22 270.826 837.494 229.57 837.494 169.999C837.494 113.477 878.751 69.1725 935.273 69.1725C990.278 69.1725 1031.52 111.947 1031.52 169.999C1031.53 226.522 988.747 270.826 935.273 270.826ZM935.273 87.4988C895.56 87.4988 881.799 125.695 881.799 169.999C881.799 211.256 894.029 252.5 935.273 252.5C974.999 252.5 987.217 211.243 987.217 168.469C987.23 127.225 971.952 87.4988 935.273 87.4988ZM263.076 252.5V241.8C278.354 241.8 281.415 237.222 281.415 232.643C281.415 226.522 279.885 221.943 278.354 217.365C278.354 217.365 275.294 205.135 272.246 195.978H212.663L206.554 215.835C205.036 220.426 203.506 225.004 203.506 231.113C203.506 237.235 209.615 241.8 218.784 241.8V252.5H159.201V241.8C174.48 241.8 180.588 237.222 186.697 220.426L232.532 82.9205C231.002 76.7988 226.41 72.2204 217.254 72.2204V61.5204H266.124C282.795 110.458 299.6 159.35 316.537 208.195C324.177 234.161 331.816 241.8 344.033 241.8V252.5H263.076ZM241.676 104.308L218.758 179.169H266.124L241.676 104.308Z" clip-rule="evenodd" fill-rule="evenodd"></path>
</svg>
