<svg xmlns="http://www.w3.org/2000/svg" fill="none" viewBox="0 0 620 156" height="156" width="620">
<path fill="black" d="M377.7 44C367.8 44 360 46.1 352.2 50.6C352.2 28 352.2 7 353 0L304.9 8.59999V12.7L309.8 13.5C316.4 14.7 318.4 18.4 319.7 27.1C320.9 44.4 320.5 135.3 319.7 150.5C332.5 153.4 346 155.4 359.6 155.4C397.4 155.4 420.1 131.9 420.1 94.9C420.5 65.4 401.9 44 377.7 44ZM361.2 147.2C358.3 147.2 354.6 147.2 352.6 146.4C351.8 136.5 351.4 94.6 351.8 57.5C355.9 56.3 358.8 55.4 362.5 55.4C378.1 55.4 386.8 73.9 386.8 96.5C386.7 125.4 376 147.2 361.2 147.2Z" clip-rule="evenodd" fill-rule="evenodd"></path>
<path fill="black" d="M125.5 2.79883H0V9.39882L7 10.1988C16.5 11.3988 19.8 17.1988 21.4 30.7988C23.5 56.2988 22.6 102.799 21.4 124.999C20.2 138.599 16.5 144.699 7 145.599L0 146.799V152.599H80.6V146.799L72 145.599C62.5 144.799 59.2 138.599 57.6 124.999C56.8 115.499 56.4 100.699 56.4 82.1988L73.7 82.9988C84.4 82.9988 89.3 91.5988 91.4 103.599H98V52.5988H91.4C89.3 64.4988 84.4 73.1988 73.7 73.1988L56.4 73.9988C56.4 49.6988 57.2 27.0988 57.6 13.4988H82.7C102 13.4988 111.9 25.3988 118.9 46.7988L125.9 44.6988L125.5 2.79883Z" clip-rule="evenodd" fill-rule="evenodd"></path>
<path fill="black" d="M165.801 42.6992C201.601 42.6992 219.301 66.9992 219.301 99.0992C219.301 129.499 199.601 155.499 163.801 155.499C128.001 155.499 110.301 131.199 110.301 99.0992C110.301 68.1992 130.401 42.6992 165.801 42.6992ZM163.701 49.6992C148.101 49.6992 144.001 71.0992 144.001 98.6992C144.001 125.899 151.001 147.699 165.401 147.699C181.901 147.699 186.001 126.299 186.001 98.6992C186.001 71.8992 179.001 49.6992 163.701 49.6992Z" clip-rule="evenodd" fill-rule="evenodd"></path>
<path fill="black" d="M429.5 99.4988C429.5 70.2988 448 42.2988 484.2 42.2988C514.2 42.2988 528.2 64.4988 528.2 93.6988H462C461.2 119.999 473.9 139.399 499.8 139.399C511.3 139.399 517.1 136.499 524.1 131.599L527 135.299C520 145.199 504.4 154.999 484.2 154.999C452.5 155.499 429.5 132.399 429.5 99.4988ZM462.4 86.2988L495.7 85.4988C495.7 71.0988 493.6 49.6988 481.3 49.6988C469.4 49.6988 463.2 69.8988 462.4 86.2988Z" clip-rule="evenodd" fill-rule="evenodd"></path>
<path fill="black" d="M613.4 48.4992C604.8 44.7992 593.7 42.6992 580.5 42.6992C554.2 42.6992 537.7 58.2992 537.7 76.7992C537.7 95.2992 549.6 103.099 566.9 108.899C584.6 115.499 589.5 120.399 589.5 128.599C589.5 137.199 582.9 145.099 571.8 145.099C558.2 145.099 548.3 137.299 540.5 115.899L535.6 117.099L536.4 148.399C545 152.099 560.7 154.999 574.2 154.999C602.2 154.999 619.9 140.599 619.9 118.799C619.9 103.999 612.1 95.2992 593.6 88.3992C573.9 80.5992 566.4 75.5992 566.4 66.1992C566.4 56.6992 573 50.5992 581.2 50.5992C594 50.5992 602.6 58.3992 609.2 77.7992L614.1 76.5992L613.4 48.4992Z" clip-rule="evenodd" fill-rule="evenodd"></path>
<path fill="black" d="M311.899 45.5995C299.999 38.5995 278.599 41.8995 267.099 67.7995L267.899 42.6995L220.199 52.1995V56.2995L225.099 57.0995C231.699 57.8995 234.599 61.1995 234.999 70.6995C236.199 87.9995 235.799 117.6 234.999 132.8C234.199 141.4 231.299 145.6 225.099 146.4L220.199 147.2V153H286.399V147.2L277.799 146.4C270.799 145.6 268.299 141.5 267.899 132.8C266.699 119.2 266.699 92.0995 267.099 75.1995C270.799 70.2995 286.399 65.6995 300.399 75.1995L311.899 45.5995Z" clip-rule="evenodd" fill-rule="evenodd"></path>
</svg>
