<svg xmlns="http://www.w3.org/2000/svg" fill="none" viewBox="0 0 494 197" height="197" width="494">
<g clip-path="url(#clip0_54_17)">
<path fill="black" d="M41.665 72.5359C41.665 93.6719 45.7905 103.637 58.4063 103.637C71.5104 103.637 75.8752 93.2036 75.8752 70.4034C75.8752 49.5365 71.5104 39.3522 58.9345 39.3522C46.508 39.3023 41.665 49.7358 41.665 72.5359ZM14.251 169.337C14.251 182.919 28.0825 191.898 54.5199 191.898C82.6614 191.898 96.9812 183.926 96.9812 171.031C96.9812 162.541 90.4342 157.927 77.8183 156.721C56.9514 154.778 38.5359 157.449 24.6845 153.323C17.8883 156.96 14.251 162.78 14.251 169.337ZM107.415 71.081C107.415 91.0112 91.1616 104.803 59.5822 108.44C41.3859 110.383 30.4642 112.317 30.4642 120.807C30.4642 129.536 46.4781 128.081 72.9255 128.779C101.824 129.506 116.842 137.508 116.842 158.136C116.842 181.674 94.2807 197 54.2509 197C19.3133 197 0.638672 186.038 0.638672 170.553C0.638672 165.211 3.06019 160.588 7.67403 156.721C11.1277 154.02 15.0893 152.041 19.3232 150.901C12.3178 146.776 8.91967 140.508 8.91967 132.466C8.91967 116.452 21.5355 107.474 46.787 106.019C22.522 101.654 9.91618 90.0048 9.91618 72.5359C9.91618 52.8848 28.3516 36.3925 57.4696 34.9277C59.6221 12.855 70.783 0 83.1596 0C91.1317 0 96.5029 5.58045 96.5029 12.6158C96.5029 20.8669 90.9224 26.6865 83.3988 26.6865C78.785 26.6865 75.636 23.7767 71.9987 23.7767C65.93 23.7767 63.0301 27.1748 62.2927 35.1768C90.4342 36.6317 107.415 51.4299 107.415 71.0511M150.145 91.6789C150.145 126.617 158.635 143.836 176.832 143.836C195.028 143.836 203.737 126.617 203.737 91.6789C203.737 56.7413 194.769 39.2724 176.832 39.2724C158.675 39.3023 150.145 56.8011 150.145 91.6789ZM236.752 91.6789C236.752 124.673 212.248 148.689 176.822 148.689C141.396 148.689 117.18 124.942 117.18 91.6789C117.18 58.6845 141.436 34.6686 176.861 34.6686C212.287 34.6686 236.792 58.7044 236.792 91.6789M280.389 91.6789C280.389 126.617 288.879 143.836 307.075 143.836C325.272 143.836 333.981 126.617 333.981 91.6789C333.981 56.7413 325.013 39.2724 307.075 39.2724C288.879 39.3023 280.389 56.8011 280.389 91.6789ZM366.995 91.6789C366.995 124.673 342.491 148.689 307.075 148.689C271.659 148.689 247.394 124.942 247.394 91.6789C247.394 58.6845 271.649 34.6686 307.075 34.6686C342.501 34.6686 367.005 58.7044 367.005 91.6789M433.413 142.65C449.905 142.65 462.521 125.909 462.521 95.0969C462.521 66.4672 448.938 49.4867 433.891 49.4867C426.617 49.4867 420.299 52.6456 413.752 58.7044V110.862C413.752 131.729 419.093 142.64 433.403 142.64M413.752 170.543C413.752 180.508 415.456 185.829 421.724 187.762C426.816 189.466 430.453 188.759 430.453 191.888C430.453 193.582 429.237 194.798 427.055 194.798H371.061C370.657 194.839 370.249 194.793 369.864 194.665C369.479 194.537 369.126 194.328 368.827 194.053C368.529 193.778 368.292 193.443 368.133 193.07C367.973 192.697 367.895 192.294 367.902 191.888C367.902 188.978 371.3 189.706 375.426 188.011C381.973 185.341 383.677 180.976 383.677 170.543V72.0576C383.677 61.6242 381.495 57.7378 373.971 54.5888C370.095 52.8848 366.936 53.1339 366.936 50.4632C366.936 46.3377 381.983 47.3143 413.772 35.4259V51.9182C428.082 40.5181 439.97 34.6885 452.636 34.6885C475.924 34.6885 493.393 54.1005 493.393 83.6968C493.393 121.295 467.922 147.743 431.041 147.743C425.215 147.705 419.42 146.887 413.812 145.311V170.543H413.752Z"></path>
</g>
<defs>
<clipPath id="clip0_54_17">
<rect fill="white" height="197" width="494"></rect>
</clipPath>
</defs>
</svg>
