<svg xmlns="http://www.w3.org/2000/svg" fill="none" viewBox="0 0 202 52" height="52" width="202">
<path fill="url(#paint0_linear_657_108)" d="M20.664 1.176V51H10.512V14.856H2.88V6.288H6.912C10.008 6.288 11.88 5.568 12.096 1.176H20.664ZM46.4889 51.792C38.4249 51.792 27.8409 47.4 27.8409 26.088C27.8409 4.776 38.4249 0.311996 46.4889 0.311996C54.5529 0.311996 65.1369 4.776 65.1369 26.088C65.1369 47.4 54.5529 51.792 46.4889 51.792ZM46.4889 8.592C42.3129 8.592 37.9209 11.328 37.9209 26.088C37.9209 40.92 42.3129 43.512 46.4889 43.512C50.6649 43.512 55.0569 40.92 55.0569 26.088C55.0569 11.328 50.6649 8.592 46.4889 8.592ZM89.5202 51.792C81.4562 51.792 70.8722 47.4 70.8722 26.088C70.8722 4.776 81.4562 0.311996 89.5202 0.311996C97.5842 0.311996 108.168 4.776 108.168 26.088C108.168 47.4 97.5842 51.792 89.5202 51.792ZM89.5202 8.592C85.3442 8.592 80.9522 11.328 80.9522 26.088C80.9522 40.92 85.3442 43.512 89.5202 43.512C93.6962 43.512 98.0882 40.92 98.0882 26.088C98.0882 11.328 93.6962 8.592 89.5202 8.592ZM132.551 51.792C124.487 51.792 113.903 47.4 113.903 26.088C113.903 4.776 124.487 0.311996 132.551 0.311996C140.615 0.311996 151.199 4.776 151.199 26.088C151.199 47.4 140.615 51.792 132.551 51.792ZM132.551 8.592C128.375 8.592 123.983 11.328 123.983 26.088C123.983 40.92 128.375 43.512 132.551 43.512C136.727 43.512 141.119 40.92 141.119 26.088C141.119 11.328 136.727 8.592 132.551 8.592Z"></path>
<path fill="url(#paint1_linear_657_108)" d="M177.767 38.85V47H174.392V38.475C174.392 37.125 173.842 36 172.267 36C170.967 36 169.817 36.9 169.817 38.85V47H166.442V33.3H169.742V34.675C170.367 33.85 171.467 33.125 173.192 33.125C175.042 33.125 176.192 33.875 176.867 35.025C177.892 33.7 179.442 33.125 181.067 33.125C184.017 33.125 185.717 34.95 185.717 37.55V47H182.342V38.475C182.342 37.125 181.717 36 180.142 36C178.842 36 177.767 36.9 177.767 38.85ZM200.566 33.3V46.775C200.566 49.35 198.916 51.975 194.066 51.975C188.966 51.975 188.216 49.3 188.166 47.35H191.616C191.616 47.825 191.616 49.275 194.141 49.275C196.166 49.275 197.191 48.55 197.191 46.6V44.85C196.541 45.65 195.191 46.425 193.291 46.425C191.466 46.425 187.766 45.325 187.766 39.9C187.766 34.925 190.916 33.125 193.616 33.125C195.466 33.125 196.741 33.85 197.291 34.625V33.3H200.566ZM197.191 39.85C197.191 38.35 196.891 35.925 194.216 35.925C192.541 35.925 191.216 37.25 191.216 39.85C191.216 42.875 192.891 43.625 194.116 43.625C196.416 43.625 197.191 42.1 197.191 39.85Z"></path>
<defs>
<linearGradient gradientUnits="userSpaceOnUse" y2="-13.1333" x2="178.972" y1="-46.6875" x1="8.38135" id="paint0_linear_657_108">
<stop stop-color="#CAA648"></stop>
<stop stop-color="#CAA648" offset="0.0994764"></stop>
<stop stop-color="#D5B147" offset="0.24"></stop>
<stop stop-color="#E4C267" offset="0.44"></stop>
<stop stop-color="#E2C065" offset="0.74"></stop>
<stop stop-color="#DBB95E" offset="0.85"></stop>
<stop stop-color="#D0AE52" offset="0.92"></stop>
<stop stop-color="#C09F41" offset="0.98"></stop>
<stop stop-color="#BB9A3C" offset="1"></stop>
</linearGradient>
<linearGradient gradientUnits="userSpaceOnUse" y2="18.518" x2="208.506" y1="12.7862" x1="167.001" id="paint1_linear_657_108">
<stop stop-color="#CAA648"></stop>
<stop stop-color="#CAA648" offset="0.0994764"></stop>
<stop stop-color="#D5B147" offset="0.24"></stop>
<stop stop-color="#E4C267" offset="0.44"></stop>
<stop stop-color="#E2C065" offset="0.74"></stop>
<stop stop-color="#DBB95E" offset="0.85"></stop>
<stop stop-color="#D0AE52" offset="0.92"></stop>
<stop stop-color="#C09F41" offset="0.98"></stop>
<stop stop-color="#BB9A3C" offset="1"></stop>
</linearGradient>
</defs>
</svg>
