<svg xmlns="http://www.w3.org/2000/svg" fill="none" viewBox="0 0 87 16" height="16" width="87">
<path fill="#DEA453" d="M7.7384 1.20282C7.85088 0.932393 8.23396 0.932393 8.34644 1.20282L10.1425 5.52111C10.1899 5.63512 10.2972 5.71301 10.4202 5.72288L15.0822 6.09664C15.3742 6.12004 15.4925 6.48438 15.2701 6.67492L11.7182 9.71752C11.6244 9.79784 11.5835 9.92389 11.6121 10.044L12.6973 14.5932C12.7653 14.8782 12.4553 15.1034 12.2054 14.9507L8.21405 12.5128C8.10869 12.4485 7.97615 12.4485 7.87079 12.5128L3.87949 14.9507C3.62954 15.1034 3.31962 14.8782 3.38757 14.5932L4.47274 10.044C4.5014 9.92389 4.46044 9.79784 4.36667 9.71752L0.814747 6.67492C0.592311 6.48438 0.710693 6.12004 1.00264 6.09664L5.66461 5.72288C5.78768 5.71301 5.8949 5.63512 5.94232 5.52111L7.7384 1.20282Z"></path>
<path fill="#DEA453" d="M25.7384 1.20282C25.8509 0.932393 26.234 0.932393 26.3464 1.20282L28.1425 5.52111C28.1899 5.63512 28.2972 5.71301 28.4202 5.72288L33.0822 6.09664C33.3742 6.12004 33.4925 6.48438 33.2701 6.67492L29.7182 9.71752C29.6244 9.79784 29.5835 9.92389 29.6121 10.044L30.6973 14.5932C30.7653 14.8782 30.4553 15.1034 30.2054 14.9507L26.2141 12.5128C26.1087 12.4485 25.9762 12.4485 25.8708 12.5128L21.8795 14.9507C21.6295 15.1034 21.3196 14.8782 21.3876 14.5932L22.4727 10.044C22.5014 9.92389 22.4604 9.79784 22.3667 9.71752L18.8147 6.67492C18.5923 6.48438 18.7107 6.12004 19.0026 6.09664L23.6646 5.72288C23.7877 5.71301 23.8949 5.63512 23.9423 5.52111L25.7384 1.20282Z"></path>
<path fill="#DEA453" d="M43.7384 1.20282C43.8509 0.932393 44.234 0.932393 44.3464 1.20282L46.1425 5.52111C46.1899 5.63512 46.2972 5.71301 46.4202 5.72288L51.0822 6.09664C51.3742 6.12004 51.4925 6.48438 51.2701 6.67492L47.7182 9.71752C47.6244 9.79784 47.5835 9.92389 47.6121 10.044L48.6973 14.5932C48.7653 14.8782 48.4553 15.1034 48.2054 14.9507L44.2141 12.5128C44.1087 12.4485 43.9762 12.4485 43.8708 12.5128L39.8795 14.9507C39.6295 15.1034 39.3196 14.8782 39.3876 14.5932L40.4727 10.044C40.5014 9.92389 40.4604 9.79784 40.3667 9.71752L36.8147 6.67492C36.5923 6.48438 36.7107 6.12004 37.0026 6.09664L41.6646 5.72288C41.7877 5.71301 41.8949 5.63512 41.9423 5.52111L43.7384 1.20282Z"></path>
<path fill="#DEA453" d="M61.7384 1.20282C61.8509 0.932393 62.234 0.932393 62.3464 1.20282L64.1425 5.52111C64.1899 5.63512 64.2972 5.71301 64.4202 5.72288L69.0822 6.09664C69.3742 6.12004 69.4925 6.48438 69.2701 6.67492L65.7182 9.71752C65.6244 9.79784 65.5835 9.92389 65.6121 10.044L66.6973 14.5932C66.7653 14.8782 66.4553 15.1034 66.2054 14.9507L62.2141 12.5128C62.1087 12.4485 61.9762 12.4485 61.8708 12.5128L57.8795 14.9507C57.6295 15.1034 57.3196 14.8782 57.3876 14.5932L58.4727 10.044C58.5014 9.92389 58.4604 9.79784 58.3667 9.71752L54.8147 6.67492C54.5923 6.48438 54.7107 6.12004 55.0026 6.09664L59.6646 5.72288C59.7877 5.71301 59.8949 5.63512 59.9423 5.52111L61.7384 1.20282Z"></path>
<mask height="14" width="15" y="1" x="72" maskUnits="userSpaceOnUse" style="mask-type:alpha" id="mask0_963_295">
<path fill="#DEA453" d="M79.0392 1.20282C79.1517 0.932393 79.5347 0.932393 79.6472 1.20282L81.4433 5.52111C81.4907 5.63512 81.5979 5.71301 81.721 5.72288L86.383 6.09664C86.675 6.12004 86.7933 6.48438 86.5709 6.67492L83.0189 9.71752C82.9252 9.79784 82.8843 9.92389 82.9129 10.044L83.9981 14.5932C84.066 14.8782 83.7561 15.1034 83.5062 14.9507L79.5148 12.5128C79.4095 12.4485 79.2769 12.4485 79.1716 12.5128L75.1803 14.9507C74.9303 15.1034 74.6204 14.8782 74.6884 14.5932L75.7735 10.044C75.8022 9.92389 75.7612 9.79784 75.6675 9.71752L72.1155 6.67492C71.8931 6.48438 72.0115 6.12004 72.3034 6.09664L76.9654 5.72288C77.0885 5.71301 77.1957 5.63512 77.2431 5.52111L79.0392 1.20282Z"></path>
</mask>
<g mask="url(#mask0_963_295)">
<path fill="#DEA453" d="M79.0392 1.20282C79.1517 0.932393 79.5347 0.932393 79.6472 1.20282L81.4433 5.52111C81.4907 5.63512 81.5979 5.71301 81.721 5.72288L86.383 6.09664C86.675 6.12004 86.7933 6.48438 86.5709 6.67492L83.0189 9.71752C82.9252 9.79784 82.8843 9.92389 82.9129 10.044L83.9981 14.5932C84.066 14.8782 83.7561 15.1034 83.5062 14.9507L79.5148 12.5128C79.4095 12.4485 79.2769 12.4485 79.1716 12.5128L75.1803 14.9507C74.9303 15.1034 74.6204 14.8782 74.6884 14.5932L75.7735 10.044C75.8022 9.92389 75.7612 9.79784 75.6675 9.71752L72.1155 6.67492C71.8931 6.48438 72.0115 6.12004 72.3034 6.09664L76.9654 5.72288C77.0885 5.71301 77.1957 5.63512 77.2431 5.52111L79.0392 1.20282Z"></path>
<rect fill="#E1E1E1" height="16" width="5" x="83"></rect>
</g>
</svg>
