<svg xmlns="http://www.w3.org/2000/svg" fill="none" viewBox="0 0 800 114" height="114" width="800">
<path fill="black" d="M46.9144 0.653165C46.1575 0.689528 45.4221 0.88187 44.713 1.33498C47.6321 1.9187 51.0526 2.31104 52.8952 4.9713C53.8186 5.95215 53.5311 7.45931 52.6076 8.32054C50.8617 10.4019 47.8637 11.055 45.2996 10.3899C36.6054 8.33729 28.383 4.3469 19.4501 3.30864C14.6655 2.67707 9.98851 4.97848 6.68712 8.30858C3.6393 11.366 2.53118 16.0071 3.13452 20.1984C3.80868 23.5142 6.26607 26.9591 9.82105 27.4471C7.71581 25.1601 7.3163 21.1888 9.49809 18.8109C10.7325 17.2798 12.9263 17.0692 14.7492 17.3515C21.6726 18.6386 28.4189 20.7223 35.3232 22.1242C39.1891 23.1768 43.0097 24.4328 46.9618 25.1505C47.0335 29.8729 47.0335 34.5906 46.9618 39.313C44.4116 41.2173 41.9762 43.2675 39.4738 45.234C41.9092 47.0569 44.4211 48.7651 46.9383 50.4732C47.101 57.1525 46.9144 63.83 47.034 70.5088C42.9145 73.6906 37.3949 74.2074 32.3811 73.6188C27.0553 73.3227 22.3281 70.15 18.8401 66.2984C24.6874 63.1788 30.6467 60.2362 36.6274 57.3755C36.8375 46.844 36.6652 36.3083 36.7227 25.7725C29.2491 28.9064 21.852 32.2078 14.4023 35.3896C16.5554 29.8825 20.9353 25.4208 26.1606 22.7701C24.7965 22.8515 23.3659 22.751 22.0936 23.3443C12.3138 27.2055 4.25413 35.5044 1.22115 45.6287C-0.807536 52.0593 -0.154433 59.0898 2.0465 65.3773C4.77374 72.3724 9.81914 78.5642 16.5081 82.0996C20.2645 84.0422 24.3075 85.8622 28.6137 85.9154C37.5274 86.657 46.9048 83.2939 52.9196 76.5853C55.5459 73.7672 56.8693 70.093 58.1707 66.5376C59.3769 63.0357 59.9219 59.308 59.7975 55.6047C56.9124 61.3271 53.0751 66.7022 47.8359 70.4969C47.8689 63.8414 47.824 57.1884 47.8474 50.533C50.1254 48.7962 52.412 47.0617 54.6177 45.234C52.3545 43.2292 50.1058 41.2269 47.8474 39.2173C47.8575 34.5379 47.8378 29.849 47.8474 25.1744C52.943 24.9065 58.8066 22.2175 60.1798 16.8731C61.1367 13.3851 61.6367 9.25355 59.498 6.09569C57.5315 3.85648 54.9813 1.91152 51.9861 1.37086C50.3278 1.22589 48.579 0.57374 46.9144 0.653165ZM23.0745 32.7461C23.0554 42.8895 23.1343 53.033 23.0386 63.1769C21.3448 63.8419 19.6793 64.5692 18.0147 65.3055C14.943 60.8611 13.0339 55.6286 12.1536 50.3177C11.9143 45.8345 12.7469 41.2939 14.3066 37.0882C17.254 35.6863 20.1367 34.1719 23.0745 32.7461ZM607.494 0.653165C606.673 0.628285 605.871 0.789527 605.114 1.33498C606.836 1.7321 608.656 1.90195 610.269 2.71056C611.704 3.39955 612.654 4.82537 613.151 6.29903C613.419 7.89232 612.252 9.3612 610.855 9.95928C608.348 11.1172 605.503 10.5813 602.948 9.88751C596.824 8.01193 590.859 5.58612 584.611 4.12203C581.401 3.43782 578.035 2.7919 574.791 3.64356C571.274 4.63398 567.705 6.31817 565.629 9.45689C562.949 12.9162 562.612 17.6745 563.918 21.7414C564.995 24.4543 567.176 27.1218 570.258 27.471C569.252 26.1792 567.523 24.8754 568.021 23.0333C568.298 21.2056 569.056 19.3515 570.521 18.1649C571.985 17.0597 573.99 17.074 575.688 17.5668C581.918 18.7247 587.999 20.4735 594.157 21.9328C598.33 22.818 602.337 24.3754 606.538 25.1505C606.609 29.8538 606.554 34.5571 606.573 39.2652C604.315 41.2604 602.057 43.2532 599.827 45.2818C602.076 47.0187 604.284 48.7986 606.561 50.4971C606.594 57.1913 606.55 63.8941 606.597 70.5926C602.645 73.5538 597.444 74.2839 592.65 73.6184C587.354 73.3026 582.722 70.1165 579.205 66.3462C580.645 65.3409 582.291 64.6955 583.846 63.8821C588.219 61.729 592.537 59.4755 596.944 57.3989C597.083 46.8584 596.961 36.313 597.004 25.7725C589.578 28.9351 582.21 32.2461 574.755 35.3418C576.459 31.2987 579.181 27.6002 582.841 25.1266C583.937 24.1266 585.047 23.0787 586.549 22.7343C585.047 22.8395 583.492 22.7893 582.123 23.4878C571.621 27.7366 562.664 37.0044 560.688 48.3919C559.937 54.1717 560.476 60.174 562.494 65.6524C565.082 72.083 569.64 77.7958 575.568 81.4417C578.405 83.169 581.453 84.5589 584.635 85.5201C592.252 86.7881 600.422 85.6924 607.087 81.6446C611.484 78.5776 615.568 74.6016 617.409 69.4438C619.386 65.0658 620.18 60.2836 620.28 55.5085C619.362 56.7095 618.823 58.1377 618.043 59.42C615.512 63.6687 612.237 67.5179 608.247 70.4605C608.295 63.7859 608.187 57.1114 608.307 50.4368C610.565 48.8053 612.684 46.9871 614.957 45.3651C612.862 43.1929 610.483 41.3173 608.258 39.2886C608.215 34.6092 608.311 29.9251 608.21 25.2457C612.588 24.9634 617.017 22.9993 619.371 19.1573C621.82 15.2099 621.806 9.83201 619.442 5.85598C617.581 3.39667 614.655 1.81296 611.631 1.35842C610.275 1.24837 608.862 0.69527 607.494 0.653165ZM583.463 32.7341C583.52 42.8584 583.463 52.9803 583.487 63.1046C581.76 63.8271 580.054 64.5902 578.331 65.3175C575.834 61.8056 573.889 57.8559 572.889 53.655C571.784 48.1526 572.076 42.1886 574.635 37.1121C577.602 35.6958 580.525 34.2126 583.463 32.7341ZM227.625 4.02633C230.476 9.02149 228.692 15.7917 224.4 19.3898C221.764 21.1075 218.73 22.0548 215.759 23.0165C215.826 43.4469 215.769 63.8821 215.778 84.3125C215.989 85.2455 215.132 85.9771 214.252 85.6043C212.515 85.523 212.056 83.6905 211.319 82.4561C200.63 62.8008 190.056 43.0785 179.281 23.4663C179.075 37.892 179.276 52.332 179.18 66.762C184.271 67.7242 189.228 70.1787 192.558 74.2265C194.104 73.0303 195.104 70.9251 197.084 70.4418C196.582 71.3557 195.85 72.1064 195.151 72.8724C191.3 77.1355 187.458 81.4178 183.611 85.6905C181.827 83.4417 179.449 81.3077 176.472 81.0015C174.515 80.925 172.253 81.0255 170.826 82.5709C169.185 84.035 168.085 86.5039 169.257 88.5947C170.63 91.5947 174.085 92.4081 176.994 93.1258C173.357 93.8435 169.286 93.4224 166.353 90.9871C164.018 88.9919 161.898 86.4603 161.291 83.3699C160.473 79.1116 161.746 74.3791 164.927 71.36C168.406 67.9199 173.506 66.6376 178.281 66.9103C178.411 60.6228 178.353 54.3363 178.31 48.0493C175.989 47.6809 172.827 48.011 171.746 50.4368C171.119 52.4033 172.593 54.0588 174.052 55.1353C172.243 54.8195 170.234 54.475 168.927 53.0731C167.387 51.1736 166.191 48.9297 165.746 46.5086C165.301 43.3938 166.119 39.8436 168.712 37.8389C171.425 35.7384 175.037 35.4513 178.348 35.5279V22.2362C177.147 20.4324 175.994 18.3654 173.933 17.4324C172.583 16.8726 170.823 16.6716 169.66 17.7243C168.052 19.0879 167.664 21.2553 167.028 23.1548C166.411 18.5185 166.875 13.2602 170.124 9.62388C174.047 4.5426 182.349 4.35599 186.641 9.05451C188.497 10.9636 189.77 13.3176 191.033 15.6382C198.976 29.7815 206.76 44.0158 214.784 58.1114C214.832 46.4225 214.856 34.7245 214.775 23.0352C213.396 22.4993 211.861 22.5137 210.458 22.0257C207.846 21.3367 205.669 19.6525 203.736 17.8295C202.53 19.2458 201.315 20.6572 200.191 22.1357C199.928 21.9922 199.406 21.7099 199.143 21.5663C203.258 16.3798 207.669 11.4277 211.952 6.37511C214.196 8.73872 217.124 10.6717 220.464 10.887C223.95 10.4856 227.381 7.69615 227.625 4.02633ZM494.713 15.342C500.455 11.6004 506.186 7.82533 511.947 4.11246C511.995 26.1888 511.904 48.2698 511.995 70.3461C513.24 72.0399 514.938 73.4322 516.445 74.9207C517.392 73.9064 518.378 72.9351 519.355 71.9543C519.584 72.1835 520.043 72.6433 520.278 72.8681C515.68 76.8533 511.225 80.992 506.599 84.935C503.685 81.9446 500.67 79.0595 497.781 76.0542C496.483 77.2073 495.297 78.4709 494.077 79.7006C493.828 79.5092 493.33 79.1212 493.082 78.9303C495.287 76.8202 497.651 74.8872 499.881 72.7964C499.862 56.0645 499.895 39.3326 499.862 22.6055C499.808 19.4759 498.215 15.7295 494.713 15.342ZM65.9951 15.9927C70.9376 12.3085 75.7844 8.4904 80.7317 4.82058C80.7557 16.9831 80.7269 29.1504 80.7461 41.3178C84.9326 37.8633 89.1522 34.4518 93.2957 30.9495C96.621 34.3992 99.7263 38.0642 103.152 41.4039C104.597 40.3656 106.08 39.38 107.597 38.4518C107.325 40.38 105.018 41.0403 103.822 42.3847C103.836 49.0354 103.822 55.6812 103.827 62.3319C103.922 67.3036 103.205 72.2409 103.057 77.2073C102.831 82.5948 100.741 88.1024 96.5402 91.6378C93.1235 94.6908 88.4541 95.7908 83.9996 96.1593C83.9231 96.2645 83.7604 96.4798 83.6791 96.5894L83.7987 96.1975C82.2628 96.1975 80.7317 96.1401 79.2006 96.0253C81.1246 95.0301 83.3011 94.3937 84.8178 92.7478C86.5594 90.8048 88.5881 88.9536 89.4446 86.413C90.8465 82.5374 90.8895 78.3604 91.0283 74.2935C90.99 65.1787 91.0713 56.0592 90.9852 46.9493C88.9565 44.3034 86.5259 41.9685 84.3728 39.4135C83.1958 40.6719 81.7848 41.7293 80.7748 43.1264C80.6935 52.533 80.7652 61.9443 80.7413 71.3504C81.9619 72.5662 83.1767 73.7911 84.4063 74.9968C85.3924 74.0064 86.3776 73.0112 87.3632 72.016C87.5838 72.2313 88.0187 72.6619 88.2388 72.8772C83.4542 76.6188 78.7179 80.4183 73.9332 84.1546C70.9046 81.4656 67.9477 78.7001 64.9668 75.9585C63.9669 76.7049 62.9669 77.4609 61.9621 78.202C61.7473 77.9772 61.3257 77.5274 61.1109 77.3025C63.4075 75.8241 65.6611 74.2791 67.9338 72.7715C67.929 56.0444 67.929 39.3221 67.9338 22.595C67.8855 21.3175 67.9481 19.9395 67.2735 18.8008C66.8281 17.93 65.8238 17.6525 65.0721 17.1262C64.9042 16.5716 65.6984 16.3372 65.9951 15.9927ZM395.535 7.11242C391.037 10.7535 386.64 14.5071 382.186 18.2008C382.138 14.7176 382.246 11.2416 382.126 7.75835C381.437 7.72486 381.134 8.03586 381.229 8.69135C381.205 33.3131 381.236 57.9324 381.217 82.5541C378.787 82.0896 376.351 81.6044 373.945 81.0589C373.906 60.2936 373.942 39.5326 373.933 18.763C373.881 16.1362 373.028 13.4951 371.301 11.4904C369.148 8.94015 365.782 7.75596 362.534 7.53108C358.682 7.42103 355.151 9.44493 352.462 12.0526C349.988 14.4018 348.661 18.0334 349.364 21.4065C349.665 19.3156 350.347 16.9592 352.27 15.7965C354.38 14.897 357.191 15.6219 358.454 17.6027C359.536 19.2008 359.643 21.1984 359.686 23.0692C359.696 28.6816 359.681 34.2939 359.686 39.9111C355.983 39.9685 351.61 40.5666 349.471 44.002C347.318 46.6909 346.653 50.5043 348.131 53.6669C349.102 56.7961 352.356 58.409 355.379 58.9061C353.686 57.8109 351.963 55.8827 352.963 53.7387C354.308 51.5856 357.365 51.2698 359.638 51.8966C359.729 61.8577 359.686 71.815 359.662 81.7766C356.264 82.9628 352.958 85.023 351.145 88.2239C349.824 90.5062 349.791 93.2358 349.901 95.7956C350.308 100.284 353.269 104.381 357.245 106.429C360.25 107.836 363.633 107.879 366.886 107.769C376.121 107.219 384.893 103.554 394.147 103.248C396.903 103.042 398.518 106.088 397.795 108.475C397.245 110.633 395.436 112.093 393.728 113.356C396.977 112.667 400.211 111.447 402.747 109.24C405.608 106.815 406.924 102.903 406.743 99.2286C406.528 95.5923 403.595 92.8866 400.547 91.322C396.532 88.968 391.686 89.4923 387.269 89.9708C378.973 90.9277 370.887 93.5617 362.509 93.7866C359.667 93.9779 357.014 91.966 356.444 89.1813C355.803 86.4976 357.983 84.1498 360.188 82.9972C364.963 80.7436 370.459 81.5781 375.439 82.6264C381.214 83.2297 386.633 85.5857 392.413 86.179C395.695 86.5522 399.181 85.9211 401.875 83.9307C404.65 82.2178 405.901 78.88 405.977 75.737C406.011 56.1391 405.941 36.5432 406.013 16.9458C407.803 15.3908 409.776 13.9961 411.336 12.1971C409.154 12.7377 407.786 14.7831 406.001 16.0367C402.474 13.1028 399.023 10.0932 395.535 7.11242ZM385.75 17.0166C387.759 18.7391 389.738 20.495 391.743 22.2319C391.747 28.404 391.728 34.5762 391.743 40.7484C390.79 41.6862 389.75 42.6766 388.357 42.8536C386.089 43.3321 383.881 42.2101 382.173 40.8082C382.183 33.6026 382.178 26.3993 382.173 19.1936C383.37 18.4759 384.564 17.7582 385.75 17.0166ZM382.173 42.5187C385.112 44.0115 388.891 44.4637 391.743 42.5307C391.733 45.3297 391.733 48.1407 391.743 50.9397C390.585 49.8105 389.097 48.9134 387.436 48.9182C385.485 48.8751 383.69 49.7961 382.173 50.9397C382.183 48.1359 382.168 45.3273 382.173 42.5187ZM387.412 49.8033C389.307 49.8512 390.762 51.265 391.743 52.7578C391.729 60.5711 391.748 68.3892 391.743 76.2025C391.896 78.5996 390.245 80.6499 388.442 82.0278C386.7 83.4106 384.336 83.4584 382.222 83.3436C382.102 73.138 382.216 62.9161 382.173 52.71C383.542 51.222 385.274 49.7746 387.412 49.8033ZM622.965 19.8491C626.065 17.1314 628.983 14.2128 632.151 11.5717C634.831 14.3994 637.654 17.0884 640.376 19.873C637.108 22.9304 633.821 25.9639 630.51 28.9734C628.008 25.916 625.434 22.9304 622.965 19.8491ZM265.122 22.7582C267.06 21.428 269.509 21.5094 271.749 21.2223C270.06 22.5572 268.185 24.1074 267.954 26.4089C267.577 28.4662 268.878 30.3179 270.395 31.5523C273.156 33.7628 276.701 34.9973 278.95 37.8298C280.031 39.1982 280.687 40.9302 280.639 42.6862C280.625 51.9684 280.649 61.2458 280.625 70.5232C283.093 72.5184 285.572 74.4896 288.036 76.4848C288.753 76.0207 289.471 75.5571 290.194 75.0925C290.16 64.9634 290.246 54.8296 290.15 44.7053C288.883 43.2077 287.127 42.1359 285.677 40.801C289.237 37.5236 292.725 34.16 296.356 30.9638C299.514 34.0643 302.834 36.9973 306.074 40.0116C304.844 41.3125 303.579 42.5793 302.279 43.8106C302.256 52.7148 302.279 61.619 302.265 70.5232C305.5 73.0303 308.734 75.5423 312.002 78.0111C312.462 77.7427 312.926 77.48 313.399 77.2169C313.351 66.3419 313.404 55.4707 313.37 44.5953C311.873 43.3178 310.322 42.0977 308.844 40.7963C312.337 37.4949 315.873 34.2509 319.385 30.9734C322.882 33.7102 326.384 36.447 329.862 39.2078C331.069 37.8776 332.303 36.5571 333.681 35.3944C333.858 35.648 334.221 36.1599 334.398 36.4135C331.422 39.0642 328.465 41.7484 325.58 44.4996C325.331 53.1693 325.575 61.8678 325.461 70.5423C317.886 75.5183 309.977 80.0594 302.293 84.901C298.24 81.9967 294.303 78.9346 290.303 75.9633C286.714 78.8484 283.121 81.7384 279.508 84.5948C278.992 85.1689 278.461 84.3316 278.035 84.0924C274.656 81.3795 271.298 78.6422 267.877 75.992C266.442 77.2451 264.935 78.4173 263.495 79.6709C263.265 79.4508 262.815 79.0154 262.586 78.8001C264.342 77.5853 266.059 76.3073 267.815 75.092C267.825 66.6854 267.825 58.2836 267.815 49.877C267.81 47.6282 267.021 45.3507 265.485 43.6857C263.796 41.8532 261.523 40.5661 260.179 38.4178C258.691 35.9202 258.557 32.8246 259.126 30.0347C259.959 26.8825 262.462 24.4806 265.122 22.7582ZM797.624 28.7629C797.968 29.6433 798.078 30.6265 797.647 31.5021C796.59 33.9183 793.71 34.8466 791.26 34.8035C788.695 34.5738 786.695 32.7294 784.968 30.9877C782.068 32.9303 779.155 34.8585 776.26 36.8011C772.921 39.0499 769.233 40.7101 765.53 42.2556C765.516 47.0115 765.535 51.7578 765.519 56.5138C768.222 58.7673 771.002 60.9204 773.653 63.2362C771.619 65.3893 769.614 67.573 767.696 69.8265C765.725 72.1997 763.863 74.9413 763.748 78.1284C763.634 81.7498 765.184 85.6713 768.389 87.5895C769.806 88.422 771.528 89.1636 773.174 88.5225C771.126 87.7904 768.607 86.3072 768.784 83.8096C769.353 81.446 772.16 79.8647 774.49 80.5441C776.906 81.2331 778.901 82.9604 780.447 84.8981C786.657 80.4245 793.198 76.4269 799.992 72.9007C799.94 66.8677 800.076 60.8195 799.932 54.7908C796.932 52.6856 794.071 50.3914 791.105 48.2478C794.244 44.2718 797.401 40.0661 798.712 35.0901C799.2 32.9901 799.365 30.3418 797.624 28.7629ZM777.623 37.8059C779.638 40.7006 782.305 43.5163 785.961 44.1096C789.602 44.9661 793.13 42.9924 795.518 40.3656C792.25 46.4086 787.181 51.2602 781.942 55.6047C780.526 54.1023 779.002 52.7028 777.6 51.1909C777.657 46.7316 777.609 42.2651 777.623 37.8059ZM782.755 55.8439C784.324 57.1645 785.875 58.5085 787.444 59.8391C788.162 60.2697 787.81 61.1692 787.91 61.8486C787.867 67.0304 787.975 72.2289 787.85 77.4107C786.679 74.7595 784.923 72.2935 782.444 70.7237C778.851 68.3749 773.91 68.2385 770.255 70.5203C768.58 71.448 767.241 72.8337 765.973 74.2404C767.786 70.6997 770.717 67.9055 773.473 65.1012C776.621 62.0687 779.769 59.0401 782.755 55.8439ZM136.662 30.9758C132.528 33.3681 128.533 35.9781 124.485 38.4996C121.054 40.2891 117.569 41.9781 114.114 43.7149C114.128 53.4038 114.1 63.0926 114.139 72.7815C112.665 73.9255 110.944 74.748 109.605 76.0595C109.863 76.2121 110.375 76.5236 110.633 76.6815C111.791 75.6815 112.937 74.6624 114.21 73.8107C118.492 77.37 122.533 81.2245 126.805 84.8034C127.015 84.6938 127.439 84.4713 127.655 84.3608C134.889 78.7532 142.198 73.2294 149.436 67.6266L148.539 66.8371C144.51 69.9758 140.592 73.2801 136.601 76.4662C133.305 73.4997 130.116 70.416 126.829 67.4352C125.709 66.617 126.336 65.0644 126.255 63.9065C133.006 58.964 139.76 54.0191 146.41 48.9426C143.09 42.99 139.877 36.9853 136.662 30.9758ZM126.231 38.1169C129.647 43.7292 133.08 49.3225 136.458 54.9588C133.023 57.375 129.616 59.82 126.22 62.2793C126.186 54.2267 126.169 46.1694 126.231 38.1169ZM248.55 30.9638C245.637 32.8825 242.704 34.7772 239.723 36.5858C235.364 39.313 230.64 41.3656 226.075 43.7149C226.089 53.399 226.048 63.0855 226.087 72.7696C224.68 73.8174 223.125 74.6475 221.756 75.748C221.9 76.0016 222.199 76.5112 222.343 76.7647C223.859 75.7456 225.357 74.7002 226.912 73.7385C230.831 77.4848 234.807 81.1743 238.754 84.8871C246.137 79.4035 253.38 73.7246 260.692 68.1409C261.63 67.9495 260.859 66.428 260.261 67.016C256.3 70.0878 252.456 73.3174 248.551 76.4657C245.489 73.4275 242.448 70.3753 239.4 67.327C238.414 66.461 238.998 65.0161 238.946 63.8821C245.443 59.0592 251.74 53.9612 258.252 49.1574C255.251 42.9852 251.742 37.0451 248.55 30.9638ZM238.861 38.3082C242.211 43.7627 245.28 49.399 248.371 55.0066C245.18 57.3463 242.096 59.8295 238.933 62.2075C238.785 54.2459 238.933 46.2747 238.861 38.3082ZM437.281 30.9877C434.085 32.849 430.931 34.7676 427.831 36.7772C424.19 38.9972 420.211 40.5738 416.336 42.3154C416.427 52.4779 416.362 62.6429 416.372 72.8059C415.075 74.0973 413.767 75.3849 412.508 76.7049C412.772 76.6906 413.298 76.6523 413.561 76.6336C414.48 75.6523 415.437 74.6954 416.384 73.7385C420.733 77.2982 425.018 80.935 429.338 84.5283C430.051 85.2168 430.857 84.191 431.551 83.9417C438.498 80.1427 445.063 75.6667 452.22 72.2552C452.33 62.7864 452.254 53.32 452.269 43.8465C453.56 42.5546 454.869 41.2675 456.132 39.947C455.879 39.9518 455.373 39.9733 455.116 39.9829C453.909 40.9733 452.69 41.9374 451.479 42.9135C446.742 38.9422 442.027 34.9399 437.281 30.9877ZM429.182 38.0092C432.599 41.2197 436.077 44.3823 439.494 47.6024C439.46 57.6836 439.47 67.7601 439.47 77.8413C435.967 74.7695 432.642 71.5117 429.183 68.3916L429.182 38.0092Z"></path>
<path fill="black" d="M512.545 53.572C517.473 46.0075 522.507 38.51 527.559 31.022C529.748 32.8808 532.449 34.032 535.306 34.3234C538.1 34.3282 540.482 32.6679 542.588 31.0077C542.057 35.089 540.698 39.3281 537.564 42.1654C534.832 44.6726 530.688 45.2754 527.248 44.0506C525.22 43.3616 523.344 42.2803 521.664 40.9549C521.368 41.6535 521.124 42.376 520.946 43.1128C527.942 53.6486 534.812 64.28 541.684 74.9019C543.262 73.878 544.645 72.5857 546.038 71.3278C546.31 71.4995 546.851 71.8445 547.124 72.0163C542.181 76.4229 537.081 80.6526 532.014 84.9204C525.502 74.4856 519.134 63.9594 512.545 53.572ZM749.191 30.9766C746.148 32.8282 743.093 34.6775 740.089 36.5865C735.931 39.4765 731.163 41.2755 726.751 43.7157C726.799 53.3998 726.751 63.091 726.775 72.7703C725.253 73.7751 723.751 74.7986 722.229 75.7847C722.426 76.0239 722.823 76.5143 723.019 76.7536C724.33 75.7823 725.514 74.6292 726.931 73.7871C730.878 77.4569 735.007 80.9282 739.012 84.5406C739.394 85.153 739.952 84.5262 740.339 84.2774C747.554 78.7176 754.789 73.1914 762.014 67.6508C761.167 66.1676 760.206 67.6053 759.358 68.213C755.966 70.9742 752.581 73.7321 749.179 76.4784C745.7 73.3062 742.342 70.0168 738.796 66.9207C738.742 65.9247 738.738 64.9266 738.785 63.9303C745.555 59.026 752.247 54.0069 758.964 49.0266C755.729 42.9932 752.483 36.9717 749.191 30.9766ZM738.748 38.2851C742.409 43.6965 745.624 49.4142 749.06 54.9835C745.577 57.3715 742.189 59.8973 738.725 62.304C738.782 54.2993 738.73 46.2898 738.748 38.2851ZM469.972 31.7732C472.709 34.266 475.01 37.2038 477.551 39.8975C480.316 37.2468 483.02 34.5196 485.689 31.7684C487.632 33.0124 489.656 34.7588 492.149 34.2564C493.905 34.1368 494.819 32.4143 496.311 31.711C496.316 35.3713 495.474 39.2181 493.053 42.0602C490.277 45.3807 485.029 46.352 481.316 44.0745C479.891 43.3807 478.943 42.0506 477.613 41.2324C477.646 51.2419 477.632 61.2466 477.623 71.256C479.594 72.7727 481.57 74.2847 483.599 75.7296C485.072 74.7631 486.206 72.9833 488.067 72.8158C483.694 76.9784 479.111 80.9401 474.551 84.9066C471.125 81.6769 467.623 78.5287 464.235 75.2612C462.914 76.4473 461.694 77.7397 460.436 78.9885C460.235 78.754 459.833 78.2894 459.632 78.0555C461.293 76.2086 463.144 74.5435 464.843 72.7302C464.781 64.1657 464.876 55.6012 464.8 47.0415C463.891 44.8788 462.312 43.0032 461.168 40.9363C459.603 41.8597 458.465 43.7831 456.518 43.8501C460.943 39.7588 465.57 35.888 469.972 31.7732ZM647.515 42.4812C651.587 38.9167 655.572 35.2612 659.668 31.7254C662.606 34.9646 665.644 38.1128 668.529 41.3999C672.854 38.2755 677.008 34.9167 681.29 31.7254C684.29 34.9406 687.232 38.2085 690.261 41.3999C694.505 38.1846 698.697 34.9024 702.969 31.7301C705.888 34.9837 708.897 38.1559 711.85 41.3808C713.658 40.2277 715.319 38.8449 717.161 37.7396C717.3 38.8114 716.324 39.2994 715.644 39.8927C714.658 40.687 713.701 41.5195 712.716 42.309C712.634 51.218 712.735 60.1269 712.664 69.0355C714.362 70.7978 716.094 72.527 717.86 74.222C718.793 73.2512 719.75 72.2986 720.659 71.3034C720.931 71.4756 721.482 71.8153 721.754 71.9876C717.29 76.3847 712.688 80.6482 708.104 84.9204C704.875 81.1071 701.487 77.4181 698.333 73.5378C699.1 72.8345 699.845 72.1024 700.582 71.3661C700.592 63.6815 700.582 55.9973 700.582 48.318C698.142 45.596 695.712 42.8635 693.195 40.2133C692.468 40.9549 691.74 41.6918 691.023 42.4377C691.013 52.0452 691.061 61.6528 690.999 71.2603C692.209 72.6192 693.573 73.8344 694.802 75.1885C691.496 78.1215 688.31 81.1932 685.023 84.1549C681.953 80.9255 678.93 77.6509 675.956 74.3321C676.803 73.289 678.501 72.533 678.234 70.9445C678.195 63.4518 678.272 55.9543 678.195 48.4668C676.148 45.6152 673.851 42.8544 671.478 40.2516C670.785 40.9884 670.081 41.7109 669.373 42.4334C669.392 51.7395 669.32 61.0504 669.406 70.3565C670.411 72.0689 671.908 73.4713 673.157 75.0163C669.947 78.3899 666.631 81.6669 663.287 84.9061C660.09 81.098 656.779 77.3899 653.559 73.6053C654.565 72.8249 655.578 72.055 656.588 71.2751C656.559 63.4135 656.531 55.5481 656.602 47.6869C654.718 45.352 652.65 43.1702 650.669 40.9166C649.263 41.9597 648.024 43.2707 646.416 44.0075C646.338 43.2755 647.06 42.9262 647.515 42.4812Z"></path>
<path fill="black" d="M619.195 43.0986C623.406 39.2421 627.765 35.5341 632.018 31.7207C635.047 35.1656 637.989 38.6871 641.004 42.1464C642.568 40.9216 643.97 39.467 645.702 38.4575C645.573 39.0077 645.425 39.5771 644.913 39.8881C643.616 40.9646 642.329 42.0459 641.022 43.0938C641.042 52.0171 640.984 60.9357 641.052 69.859C642.755 71.7825 644.516 73.6676 646.105 75.6958C647.43 74.8877 648.535 73.7819 649.798 72.8829C650.066 73.026 650.606 73.3088 650.875 73.4475C646.669 77.39 642.306 81.1699 637.923 84.9062C635.009 81.4043 632.019 77.9589 629.038 74.5097C627.741 75.6867 626.66 77.1125 625.239 78.1364C625.038 77.9498 624.636 77.5671 624.435 77.3757C625.699 76.1795 626.89 74.9068 628.172 73.7202C628.273 65.6151 628.177 57.5003 628.22 49.3947C628.144 48.2655 628.508 46.9306 627.627 46.0311C626.067 44.0933 624.632 42.055 622.972 40.2034C621.736 41.2039 620.563 42.29 619.195 43.0986Z"></path>
</svg>
