<svg xmlns="http://www.w3.org/2000/svg" fill="none" viewBox="0 0 654 201" height="201" width="654">
<path fill="black" d="M311.901 0.900391C311.901 0.900391 304.601 1.1004 300.301 1.0004C300.101 2.8004 298.101 19.0004 296.301 32.0004C294.301 44.1004 278.201 133.5 272.701 160.2C271.301 168.3 266.801 191.1 266.401 193.4C261.301 194 255.201 194.6 251.301 194.7C250.801 194.7 249.901 194.9 249.501 194.9V199.5C250.001 199.5 252.501 199.7 254.401 199.6C258.701 199.5 271.101 198.9 273.401 198.9C282.301 198.9 288.201 199.5 296.401 199.7C296.501 199.7 298.801 199.7 299.801 199.6V194.9C299.101 194.9 298.201 194.9 297.701 194.9C292.601 194.8 287.601 194.4 282.501 193.7C283.001 190.6 290.601 144.3 294.201 125.8C301.101 91.5004 305.901 67.2004 305.901 67.2004L307.201 70.2004L361.601 199.8L371.501 199.9C371.501 199.9 377.201 185.9 383.901 170.1C384.101 169.7 384.601 168.6 385.201 167C392.301 150.7 427.301 67.7004 427.301 67.7004C427.301 67.7004 427.601 69.2004 428.201 71.9004C431.501 88.2004 442.801 146.8 445.201 160.9C446.301 168.2 447.401 175.6 448.001 179.9C448.901 186 449.501 192 449.501 193.7C448.401 193.8 437.301 194.8 433.101 194.9C432.501 194.9 431.401 194.9 431.301 194.9V199.6C432.801 199.6 434.301 199.7 435.701 199.6C444.301 199.4 452.501 198.8 461.101 198.8C470.701 198.8 486.301 199.6 496.301 199.7C497.401 199.7 499.401 199.6 499.401 199.6V195C498.801 195 496.301 194.9 495.401 194.8C490.901 194.4 483.401 193.7 481.501 193.6C481.501 193.6 480.301 186.8 478.601 178.8C472.101 147.2 453.501 51.0004 450.601 27.4004C449.601 19.3004 446.901 1.0004 446.901 1.0004H435.701C435.701 1.0004 430.001 17.4004 424.801 32.3004C421.201 42.5004 416.401 55.1004 412.701 64.8004C394.501 112.6 374.101 157.1 374.101 157.1C374.101 157.1 330.801 53.7004 328.501 47.7004C326.101 41.8004 311.901 0.900391 311.901 0.900391ZM0.40078 1.0004L0.500778 11.9004L0.300781 38.5004L3.20078 38.4004L3.50078 14.7004C3.50078 14.7004 19.3008 14.6004 21.4008 14.6004H50.9008L69.9008 14.7004V179.3V193.5L69.5008 193.6C67.0008 193.8 57.2008 194.4 53.3008 194.5C52.4008 194.5 51.8008 194.6 51.8008 194.5V199.3C52.5008 199.3 54.4008 199.4 54.7008 199.4C64.1008 199.3 76.7008 198.5 85.7008 198.5C94.8008 198.5 107.701 199.4 115.601 199.5C116.401 199.5 117.301 199.4 118.101 199.4V195H117.101C114.601 195 100.601 194.1 99.1008 193.9C99.0008 191.7 98.8008 181 98.8008 180.8L98.9008 14.8004H113.401H151.201L163.801 15.0004C163.901 15.9004 164.501 27.9004 164.501 28.2004C164.501 29.1004 165.001 38.0004 165.001 40.2004H168.001L167.801 13.3004L167.901 1.20039C156.801 1.50039 128.501 1.90039 84.6008 1.90039C46.7008 1.80039 10.4008 1.4004 0.40078 1.0004ZM176.301 1.0004V5.70039C177.801 5.80039 186.601 6.60039 188.701 6.70039C190.401 6.90039 192.801 7.1004 194.501 7.3004C194.501 8.8004 194.501 19.2004 194.601 23.3004C194.901 62.3004 194.601 148.4 194.501 178.9C194.501 187.7 194.401 193.4 194.401 193.4C192.401 193.8 190.301 194 188.301 194C186.101 194.2 178.101 194.8 176.301 194.9V199.6C177.001 199.6 178.401 199.8 179.201 199.8C188.301 199.8 200.901 198.7 210.201 198.7C219.601 198.7 232.101 199.8 239.501 199.9C240.101 199.9 241.701 199.7 242.301 199.7V195H241.701C241.401 194.9 231.901 194.5 229.601 194.3C227.401 194.2 225.201 193.9 223.101 193.6C223.101 193.5 223.101 192.1 223.101 189.7C223.101 187.5 223.101 183.8 223.101 179.7C223.101 149 223.201 57.7004 223.201 22.8004C223.201 16.1004 223.201 10.6004 223.201 7.6004C225.301 7.5004 233.601 6.6004 236.601 6.3004C236.701 6.3004 240.701 6.1004 242.301 6.0004V1.1004C232.001 1.1004 218.501 1.90039 208.501 1.90039C197.901 1.90039 185.001 1.0004 176.301 1.0004ZM651.201 1.20039H648.101C641.201 1.20039 623.701 1.4004 603.101 1.5004C590.501 1.6004 580.601 1.70039 567.601 1.70039C558.501 1.80039 545.701 2.2004 537.901 2.1004C525.301 2.1004 515.101 1.3004 509.501 1.3004C506.901 1.3004 505.401 1.4004 504.601 1.3004C504.601 1.4004 504.601 6.0004 504.601 6.0004C505.401 6.1004 506.201 6.20039 507.001 6.20039C510.201 6.40039 516.101 6.9004 519.101 7.3004C519.701 7.4004 520.701 7.60039 523.501 7.90039C523.501 8.90039 523.601 20.8004 523.601 27.9004C523.601 34.5004 523.501 181.2 523.501 181.2C523.501 181.4 523.201 193 523.201 193.9C517.301 194.7 511.301 195.2 505.401 195.3H504.401V200C504.901 200 507.001 200.1 508.201 200.1C513.501 200.1 527.101 199.3 540.901 199.3C550.601 199.3 561.301 199.7 572.201 199.8C585.501 200 599.101 200 611.201 200.2C631.201 200.5 647.401 200.5 652.701 200.5C652.701 200.5 653.301 163.4 653.301 160.4H650.401C650.401 163.6 649.201 175.3 649.201 175.8C648.801 180.2 648.401 184.9 648.101 187.1C648.101 187.1 646.701 187.2 646.001 187.2C642.701 187.1 632.201 187.5 632.001 187.5H585.201L552.301 186.9L552.101 177.8V106.9C558.001 106.7 566.901 106.4 572.401 106.4C577.001 106.4 588.001 106.1 594.101 106.2C608.901 106.2 622.101 106.3 623.201 106.4C625.601 106.5 630.201 106.6 631.901 106.7C632.001 107.3 632.201 108.3 632.201 108.6C633.101 114 633.601 117.8 634.201 123.1C634.301 123.6 634.301 124 634.401 124.5H637.801C637.801 124.5 637.901 122.6 637.801 121.4C637.701 117.2 637.501 108.9 637.501 99.7004C637.501 93.3004 637.901 83.5004 637.901 78.8004C637.901 77.5004 637.801 76.6004 637.801 76.3004L634.701 76.4004C634.701 77.2004 634.601 78.1004 634.401 78.9004C634.101 82.4004 633.101 86.9004 632.301 91.6004C632.101 92.1004 632.001 92.5004 631.901 93.0004C631.501 93.1004 621.901 93.6004 621.001 93.6004C620.701 93.6004 606.601 94.0004 606.301 94.0004L552.101 93.8004L552.201 15.7004C552.201 15.7004 559.101 15.5004 561.001 15.5004C568.801 15.5004 581.501 15.4004 594.501 15.4004C613.501 15.4004 631.901 15.5004 631.901 15.6004C632.001 15.7004 637.601 15.7004 637.701 15.8004C637.801 15.9004 644.801 16.1004 646.601 16.2004C646.601 16.2004 646.701 16.8004 646.801 17.5004C647.601 25.7004 648.201 35.5004 648.501 39.0004V40.4004H651.401C651.401 35.3004 651.101 19.8004 651.101 9.90039C651.101 6.70039 651.101 4.10039 651.101 2.70039L651.201 1.20039Z"></path>
</svg>
